<svg xmlns="http://www.w3.org/2000/svg" viewBox="0 0 32 32" width="32" height="32">
  <!-- drop shadow -->
  <ellipse cx="16" cy="28" rx="9" ry="2" fill="rgba(0,0,0,.28)"/>
  <!-- tail fin -->
  <polygon points="5,16 1,10 1,22" fill="#2266AA"/>
  <polygon points="5,16 2,12 4,14.5 2,19.5 4,17.5" fill="#3388CC"/>
  <!-- body -->
  <ellipse cx="16.5" cy="16" rx="11" ry="6" fill="#4499DD"/>
  <!-- belly highlight -->
  <ellipse cx="16" cy="18.5" rx="8" ry="2.8" fill="#AADDFF" opacity="0.42"/>
  <!-- scale lines -->
  <path d="M10,14 Q13,12 16,14 M14,12.5 Q17.5,10 21,12" stroke="#77BBEE" stroke-width="0.9" fill="none" stroke-linecap="round"/>
  <!-- dorsal fin -->
  <path d="M11,11 Q14.5,7 19,10.5" stroke="#2266AA" stroke-width="1.3" fill="none" stroke-linecap="round"/>
  <!-- pectoral fin -->
  <path d="M18,16 Q21,12 22.5,14" stroke="#3388CC" stroke-width="1.1" fill="none" stroke-linecap="round"/>
  <!-- eye -->
  <circle cx="23.5" cy="14.5" r="2.5" fill="white" stroke="#1A4A88" stroke-width="0.6"/>
  <circle cx="24" cy="14.2" r="1.3" fill="#112244"/>
  <circle cx="24.5" cy="13.6" r="0.55" fill="white"/>
  <!-- mouth -->
  <path d="M27.5,16.5 Q28,18 26.5,17.5" stroke="#1A4A88" stroke-width="0.8" fill="none" stroke-linecap="round"/>
  <!-- tail base edge -->
  <path d="M5,12 Q7,14 7,18 Q5,20 5,18" fill="#3380BB" opacity="0.5"/>
</svg>
