<svg xmlns="http://www.w3.org/2000/svg" viewBox="0 0 64 64">
  <!--
    Cactus Sprite — frame B (arms shifted to alternate sway position).
    Left arm raised higher, right arm pulled back slightly. Spines remain.
  -->
  <!-- Soil mound / ground -->
  <ellipse cx="32" cy="59" rx="20" ry="6" fill="#AA8855" stroke="#6A4A22" stroke-width="1.5"/>
  <ellipse cx="32" cy="58" rx="16" ry="4" fill="#C09A66" opacity="0.5"/>

  <!-- TRUNK BASE (identical) -->
  <rect x="22" y="24" width="20" height="36" rx="9" fill="#3A7A22" stroke="#0D1A00" stroke-width="2"/>
  <path d="M22,34 Q32,31 42,34" fill="none" stroke="#2A5A14" stroke-width="1.5"/>
  <path d="M22,42 Q32,39 42,42" fill="none" stroke="#2A5A14" stroke-width="1.5"/>
  <path d="M22,50 Q32,47 42,50" fill="none" stroke="#2A5A14" stroke-width="1.5"/>
  <!-- Trunk spines -->
  <line x1="22" y1="30" x2="13" y2="26" stroke="#DDF0AA" stroke-width="2"   stroke-linecap="round"/>
  <line x1="22" y1="38" x2="12" y2="35" stroke="#DDF0AA" stroke-width="1.8" stroke-linecap="round"/>
  <line x1="22" y1="46" x2="13" y2="43" stroke="#DDF0AA" stroke-width="1.8" stroke-linecap="round"/>
  <line x1="42" y1="30" x2="51" y2="26" stroke="#DDF0AA" stroke-width="2"   stroke-linecap="round"/>
  <line x1="42" y1="38" x2="52" y2="35" stroke="#DDF0AA" stroke-width="1.8" stroke-linecap="round"/>
  <line x1="42" y1="46" x2="51" y2="43" stroke="#DDF0AA" stroke-width="1.8" stroke-linecap="round"/>

  <!-- LEFT ARM (raised HIGHER in frame B) -->
  <rect x="6" y="16" width="18" height="12" rx="6" fill="#3A7A22" stroke="#0D1A00" stroke-width="2"/>
  <rect x="4" y="6"  width="12" height="14" rx="6" fill="#3A7A22" stroke="#0D1A00" stroke-width="2"/>
  <!-- Left arm spines -->
  <line x1="6"  y1="20" x2="0"  y2="16" stroke="#DDF0AA" stroke-width="2"   stroke-linecap="round"/>
  <line x1="6"  y1="24" x2="0"  y2="22" stroke="#DDF0AA" stroke-width="1.8" stroke-linecap="round"/>
  <line x1="8"  y1="10" x2="2"  y2="6"  stroke="#DDF0AA" stroke-width="1.8" stroke-linecap="round"/>
  <line x1="14" y1="6"  x2="14" y2="0"  stroke="#DDF0AA" stroke-width="1.8" stroke-linecap="round"/>

  <!-- RIGHT ARM (pulled slightly lower/back in frame B) -->
  <rect x="40" y="22" width="18" height="12" rx="6" fill="#3A7A22" stroke="#0D1A00" stroke-width="2"/>
  <rect x="48" y="12" width="12" height="14" rx="6" fill="#3A7A22" stroke="#0D1A00" stroke-width="2"/>
  <!-- Right arm spines -->
  <line x1="58" y1="26" x2="64" y2="22" stroke="#DDF0AA" stroke-width="2"   stroke-linecap="round"/>
  <line x1="58" y1="30" x2="64" y2="28" stroke="#DDF0AA" stroke-width="1.8" stroke-linecap="round"/>
  <line x1="56" y1="16" x2="62" y2="12" stroke="#DDF0AA" stroke-width="1.8" stroke-linecap="round"/>
  <line x1="50" y1="12" x2="50" y2="6"  stroke="#DDF0AA" stroke-width="1.8" stroke-linecap="round"/>

  <!-- HEAD / FLOWER CROWN (identical) -->
  <ellipse cx="28" cy="18" rx="6"   ry="4"   fill="#FF5577" transform="rotate(-30,28,18)"/>
  <ellipse cx="36" cy="18" rx="6"   ry="4"   fill="#FF5577" transform="rotate(30,36,18)"/>
  <ellipse cx="32" cy="14" rx="5.5" ry="3.5" fill="#FF8899"/>
  <ellipse cx="32" cy="22" rx="5.5" ry="3.5" fill="#FF5577"/>
  <circle cx="32" cy="18" r="6"   fill="#FFDD22" stroke="#0D1A00" stroke-width="1.2"/>
  <circle cx="32" cy="18" r="3.5" fill="#FFEE88"/>

  <!-- FACE (identical) -->
  <ellipse cx="27" cy="30" rx="4.5" ry="4" fill="#0D1A00"/>
  <ellipse cx="37" cy="30" rx="4.5" ry="4" fill="#0D1A00"/>
  <ellipse cx="27" cy="30" rx="2.5" ry="2.5" fill="#DD4400"/>
  <ellipse cx="37" cy="30" rx="2.5" ry="2.5" fill="#DD4400"/>
  <circle cx="27.8" cy="29" r="1" fill="#FF9944"/>
  <circle cx="37.8" cy="29" r="1" fill="#FF9944"/>
  <path d="M22,26 L27,28" stroke="#0D1A00" stroke-width="2.5" stroke-linecap="round"/>
  <path d="M42,26 L37,28" stroke="#0D1A00" stroke-width="2.5" stroke-linecap="round"/>
  <path d="M25,37 Q32,34 39,37" fill="none" stroke="#0D1A00" stroke-width="2" stroke-linecap="round"/>
</svg>
