<svg xmlns="http://www.w3.org/2000/svg" viewBox="0 0 64 64">
  <!-- Main trunk -->
  <rect x="24" y="16" width="16" height="44" fill="#228B22" rx="8"/>
  <!-- Left arm -->
  <rect x="10" y="22" width="15" height="10" fill="#228B22" rx="5"/>
  <rect x="10" y="18" width="10" height="18" fill="#228B22" rx="5"/>
  <!-- Right arm -->
  <rect x="39" y="26" width="15" height="10" fill="#228B22" rx="5"/>
  <rect x="44" y="22" width="10" height="18" fill="#228B22" rx="5"/>
  <!-- Spines on trunk -->
  <line x1="24" y1="28" x2="18" y2="24" stroke="#DDFFAA" stroke-width="1.5"/>
  <line x1="40" y1="28" x2="46" y2="24" stroke="#DDFFAA" stroke-width="1.5"/>
  <line x1="24" y1="36" x2="18" y2="32" stroke="#DDFFAA" stroke-width="1.5"/>
  <line x1="40" y1="36" x2="46" y2="32" stroke="#DDFFAA" stroke-width="1.5"/>
  <line x1="24" y1="44" x2="18" y2="40" stroke="#DDFFAA" stroke-width="1.5"/>
  <line x1="40" y1="44" x2="46" y2="40" stroke="#DDFFAA" stroke-width="1.5"/>
  <!-- Flower on top -->
  <circle cx="32" cy="14" r="6" fill="#FF6699"/>
  <circle cx="32" cy="14" r="3" fill="#FFEE44"/>
  <!-- Face -->
  <circle cx="28" cy="30" r="3" fill="#FFFF99"/>
  <circle cx="36" cy="30" r="3" fill="#FFFF99"/>
  <circle cx="28.8" cy="30.5" r="1.5" fill="#111"/>
  <circle cx="36.8" cy="30.5" r="1.5" fill="#111"/>
  <path d="M27,37 Q32,42 37,37" fill="none" stroke="#116611" stroke-width="2"/>
  <!-- Ground soil mound -->
  <ellipse cx="32" cy="60" rx="20" ry="6" fill="#AA8855"/>
</svg>
