<svg xmlns="http://www.w3.org/2000/svg" viewBox="0 0 64 64">
  <!--
    Cloud Bully — frame B (cloud puffs shift slightly, lightning repositioned).
    Face identical. Cloud shape subtly different.
  -->
  <!-- === CLOUD BODY (puffs shifted for drift animation) === -->
  <circle cx="16" cy="33" r="14" fill="#BBBBDD" stroke="#334466" stroke-width="3"/>
  <circle cx="32" cy="23" r="19" fill="#BBBBDD" stroke="#334466" stroke-width="3"/>
  <circle cx="48" cy="31" r="15" fill="#BBBBDD" stroke="#334466" stroke-width="3"/>
  <!-- Cloud base -->
  <rect x="8" y="33" width="48" height="15" fill="#BBBBDD"/>
  <line x1="8" y1="48" x2="56" y2="48" stroke="#334466" stroke-width="3"/>

  <!-- Storm tinge -->
  <circle cx="16" cy="35" r="12" fill="#7788BB" opacity="0.25"/>
  <circle cx="48" cy="33" r="13" fill="#7788BB" opacity="0.25"/>

  <!-- === FACE (identical) === -->
  <line x1="18" y1="26" x2="28" y2="30" stroke="#223344" stroke-width="4" stroke-linecap="round"/>
  <line x1="46" y1="26" x2="36" y2="30" stroke="#223344" stroke-width="4" stroke-linecap="round"/>
  <circle cx="24" cy="34" r="5.5" fill="white" stroke="#223344" stroke-width="2.5"/>
  <circle cx="40" cy="34" r="5.5" fill="white" stroke="#223344" stroke-width="2.5"/>
  <circle cx="25" cy="35" r="3" fill="#222244"/>
  <circle cx="41" cy="35" r="3" fill="#222244"/>
  <circle cx="26" cy="33" r="1.2" fill="white"/>
  <circle cx="42" cy="33" r="1.2" fill="white"/>
  <path d="M22,43 Q32,38 42,43" fill="none" stroke="#223344" stroke-width="3" stroke-linecap="round"/>

  <!-- === LIGHTNING BOLT (shifted angle for animation) === -->
  <polygon points="38,48 32,56 36,56 30,64 44,54 39,54 44,48" fill="#FFDD00" stroke="#CC9900" stroke-width="2"/>
</svg>
