<svg xmlns="http://www.w3.org/2000/svg" viewBox="0 0 64 64">
  <!-- Body segments (left to right) -->
  <circle cx="10" cy="40" r="8"  fill="#FF6633"/>
  <circle cx="22" cy="38" r="9"  fill="#FFAA00"/>
  <circle cx="35" cy="37" r="9"  fill="#44CC44"/>
  <circle cx="48" cy="38" r="9"  fill="#3399FF"/>
  <!-- Head -->
  <circle cx="58" cy="34" r="10" fill="#FF66AA"/>
  <!-- Eyes -->
  <circle cx="61" cy="30" r="3.5" fill="white"/>
  <circle cx="56" cy="30" r="3.5" fill="white"/>
  <circle cx="61.8" cy="30.5" r="1.8" fill="#222"/>
  <circle cx="56.8" cy="30.5" r="1.8" fill="#222"/>
  <circle cx="62.5" cy="29.5" r="0.8" fill="white"/>
  <circle cx="57.5" cy="29.5" r="0.8" fill="white"/>
  <!-- Smile -->
  <path d="M54,36 Q58,40 62,36" fill="none" stroke="#882244" stroke-width="1.5"/>
  <!-- Antennae -->
  <line x1="56" y1="24" x2="52" y2="16" stroke="#FF66AA" stroke-width="2" stroke-linecap="round"/>
  <line x1="62" y1="24" x2="66" y2="16" stroke="#FF66AA" stroke-width="2" stroke-linecap="round"/>
  <circle cx="52" cy="15" r="2.5" fill="#FFAACC"/>
  <circle cx="66" cy="15" r="2.5" fill="#FFAACC"/>
  <!-- Numbers on segments -->
  <text x="10" y="44" font-size="8" fill="white" text-anchor="middle" font-family="Arial" font-weight="bold">1</text>
  <text x="22" y="42" font-size="8" fill="white" text-anchor="middle" font-family="Arial" font-weight="bold">2</text>
  <text x="35" y="41" font-size="8" fill="white" text-anchor="middle" font-family="Arial" font-weight="bold">3</text>
  <text x="48" y="42" font-size="8" fill="white" text-anchor="middle" font-family="Arial" font-weight="bold">4</text>
  <!-- Legs -->
  <line x1="14" y1="46" x2="12" y2="54" stroke="#FF6633" stroke-width="2" stroke-linecap="round"/>
  <line x1="22" y1="46" x2="20" y2="54" stroke="#FFAA00" stroke-width="2" stroke-linecap="round"/>
  <line x1="30" y1="46" x2="28" y2="54" stroke="#44CC44" stroke-width="2" stroke-linecap="round"/>
  <line x1="38" y1="46" x2="40" y2="54" stroke="#3399FF" stroke-width="2" stroke-linecap="round"/>
  <line x1="46" y1="46" x2="44" y2="54" stroke="#3399FF" stroke-width="2" stroke-linecap="round"/>
</svg>
