<svg xmlns="http://www.w3.org/2000/svg" viewBox="0 0 64 64">
  <!-- Crystal Bat — frame A: bold crystalline bat with gem wings (wings down) -->

  <!-- Right wing — bold faceted shape -->
  <polygon points="32,30 56,14 60,36 44,46" fill="#9955EE" stroke="#6622AA" stroke-width="3"/>
  <polygon points="32,30 58,12 62,22 52,28" fill="#BB88FF" opacity="0.8"/>
  <!-- Wing vein lines — bold -->
  <line x1="32" y1="30" x2="58" y2="12" stroke="#CCAAFF" stroke-width="2"/>
  <line x1="32" y1="30" x2="60" y2="36" stroke="#CCAAFF" stroke-width="2"/>

  <!-- Left wing -->
  <polygon points="32,30 8,14 4,36 20,46" fill="#9955EE" stroke="#6622AA" stroke-width="3"/>
  <polygon points="32,30 6,12 2,22 12,28" fill="#BB88FF" opacity="0.8"/>
  <line x1="32" y1="30" x2="6"  y2="12" stroke="#CCAAFF" stroke-width="2"/>
  <line x1="32" y1="30" x2="4"  y2="36" stroke="#CCAAFF" stroke-width="2"/>

  <!-- Body — bold oval -->
  <ellipse cx="32" cy="36" rx="13" ry="15" fill="#6633AA" stroke="#441188" stroke-width="3.5"/>

  <!-- Head — bold circle -->
  <circle cx="32" cy="22" r="13" fill="#6633AA" stroke="#441188" stroke-width="3.5"/>

  <!-- Bat ears — bold with inner color -->
  <polygon points="21,17 16,4 29,15" fill="#7733CC" stroke="#441188" stroke-width="2.5"/>
  <polygon points="43,17 48,4 35,15" fill="#7733CC" stroke="#441188" stroke-width="2.5"/>
  <polygon points="22,16 19,8 27,15" fill="#BB99DD"/>
  <polygon points="42,16 45,8 37,15" fill="#BB99DD"/>

  <!-- Eyes — bold glowing gems -->
  <circle cx="25" cy="21" r="6" fill="#DDAAFF" stroke="#7733CC" stroke-width="2"/>
  <circle cx="39" cy="21" r="6" fill="#DDAAFF" stroke="#7733CC" stroke-width="2"/>
  <circle cx="25" cy="21" r="3.5" fill="#5500CC"/>
  <circle cx="39" cy="21" r="3.5" fill="#5500CC"/>
  <circle cx="27" cy="19.5" r="1.5" fill="white"/>
  <circle cx="41" cy="19.5" r="1.5" fill="white"/>

  <!-- Snout — bold -->
  <ellipse cx="32" cy="28" rx="5" ry="3.5" fill="#8855CC" stroke="#441188" stroke-width="1.5"/>

  <!-- Fangs — bold white -->
  <polygon points="29,30 27,37 31,30" fill="white" stroke="#CCCCCC" stroke-width="1"/>
  <polygon points="35,30 37,37 33,30" fill="white" stroke="#CCCCCC" stroke-width="1"/>

  <!-- Forehead gem — bold crystal -->
  <polygon points="32,10 28,17 36,17" fill="#AAEEFF" stroke="#55AADD" stroke-width="2"/>
</svg>
