<svg xmlns="http://www.w3.org/2000/svg" viewBox="0 0 32 48">
  <!-- Ground shadow -->
  <ellipse cx="16" cy="46" rx="10" ry="3" fill="#1a2a1a" opacity="0.3"/>
  <!-- Main vine stems (back, darker) -->
  <path d="M14,46 Q10,38 13,30 Q16,22 12,14 Q10,8 14,2" fill="none" stroke="#1e5a1e" stroke-width="2.5" stroke-linecap="round"/>
  <path d="M18,46 Q22,36 18,28 Q14,20 20,12 Q22,6 18,1" fill="none" stroke="#1e5a1e" stroke-width="2.2" stroke-linecap="round"/>
  <!-- Thinner vine tendrils -->
  <path d="M12,42 Q6,36 8,30 Q10,24 7,18" fill="none" stroke="#2d7a2d" stroke-width="1.5" stroke-linecap="round"/>
  <path d="M20,40 Q26,34 24,26 Q22,20 25,14" fill="none" stroke="#2d7a2d" stroke-width="1.4" stroke-linecap="round"/>
  <path d="M16,44 Q18,38 16,32 Q14,26 16,20 Q18,14 16,8" fill="none" stroke="#3a8a3a" stroke-width="1.8" stroke-linecap="round"/>
  <!-- Leaves (dark to light, bottom to top) -->
  <ellipse cx="8" cy="36" rx="3" ry="1.8" transform="rotate(-30 8 36)" fill="#1e5a1e"/>
  <ellipse cx="24" cy="32" rx="2.8" ry="1.6" transform="rotate(25 24 32)" fill="#1e5a1e"/>
  <ellipse cx="10" cy="28" rx="2.5" ry="1.5" transform="rotate(-20 10 28)" fill="#2d7a2d"/>
  <ellipse cx="22" cy="22" rx="2.8" ry="1.6" transform="rotate(35 22 22)" fill="#2d7a2d"/>
  <ellipse cx="9" cy="18" rx="2.3" ry="1.4" transform="rotate(-40 9 18)" fill="#3a8a3a"/>
  <ellipse cx="23" cy="14" rx="2.5" ry="1.5" transform="rotate(20 23 14)" fill="#3a8a3a"/>
  <ellipse cx="12" cy="10" rx="2.2" ry="1.3" transform="rotate(-15 12 10)" fill="#4a9a4a"/>
  <ellipse cx="20" cy="6" rx="2" ry="1.2" transform="rotate(30 20 6)" fill="#4a9a4a"/>
  <!-- Leaf vein highlights -->
  <line x1="7" y1="36" x2="9.5" y2="35.5" stroke="#4a9a4a" stroke-width="0.3" opacity="0.6"/>
  <line x1="9" y1="28" x2="11.5" y2="27.5" stroke="#5aaa5a" stroke-width="0.3" opacity="0.6"/>
  <!-- Berries (purple/blue clusters) -->
  <circle cx="22" cy="34" r="1.4" fill="#4a2a6a"/>
  <circle cx="24" cy="33" r="1.2" fill="#5a3a8a"/>
  <circle cx="23" cy="35.5" r="1.1" fill="#5a3a8a"/>
  <circle cx="10" cy="22" r="1.3" fill="#3a2a7a"/>
  <circle cx="8.5" cy="23.5" r="1.1" fill="#4a3a8a"/>
  <circle cx="11.5" cy="23" r="1" fill="#4a3a8a"/>
  <circle cx="20" cy="10" r="1.2" fill="#5a4a9a"/>
  <circle cx="21.5" cy="11.5" r="1" fill="#6a5aaa"/>
  <!-- Berry specular highlights -->
  <circle cx="21.5" cy="33.5" r="0.4" fill="#9a7aca" opacity="0.6"/>
  <circle cx="9.5" cy="21.5" r="0.4" fill="#8a6aba" opacity="0.6"/>
  <circle cx="19.5" cy="9.5" r="0.35" fill="#aa8aca" opacity="0.5"/>
  <!-- Dark base thickening -->
  <ellipse cx="16" cy="45" rx="5" ry="2" fill="#1a3a1a" opacity="0.5"/>
</svg>