<svg xmlns="http://www.w3.org/2000/svg" viewBox="0 0 32 32">
  <!-- Ground shadow -->
  <ellipse cx="16" cy="29" rx="10" ry="2.5" fill="#3d2b1a" opacity="0.2"/>
  <!-- Outer tangled mass - dark base -->
  <circle cx="16" cy="17" r="11" fill="#8b6f4e"/>
  <!-- Mid-tone body -->
  <circle cx="16" cy="16" r="9.5" fill="#a6884e"/>
  <!-- Tangled branch lines - dark -->
  <path d="M8 12 Q14 18 24 11" stroke="#6b5234" stroke-width="0.8" fill="none"/>
  <path d="M10 22 Q16 14 23 21" stroke="#6b5234" stroke-width="0.8" fill="none"/>
  <path d="M7 17 Q16 10 25 17" stroke="#6b5234" stroke-width="0.7" fill="none"/>
  <path d="M12 8 Q18 20 20 7" stroke="#6b5234" stroke-width="0.7" fill="none"/>
  <path d="M9 14 Q20 22 24 13" stroke="#7a6340" stroke-width="0.6" fill="none"/>
  <!-- Lighter branch strands -->
  <path d="M11 10 Q16 16 22 10" stroke="#c4a96a" stroke-width="0.7" fill="none"/>
  <path d="M8 19 Q15 12 23 19" stroke="#c4a96a" stroke-width="0.6" fill="none"/>
  <path d="M13 23 Q17 15 21 24" stroke="#c4a96a" stroke-width="0.6" fill="none"/>
  <path d="M14 7 Q12 18 18 25" stroke="#bfa060" stroke-width="0.5" fill="none"/>
  <!-- Highlight strands -->
  <path d="M13 9 Q16 13 20 9" stroke="#dcc48a" stroke-width="0.5" fill="none"/>
  <path d="M10 16 Q16 20 22 16" stroke="#dcc48a" stroke-width="0.5" fill="none"/>
  <!-- Specular highlight -->
  <ellipse cx="14" cy="12" rx="3" ry="2" fill="#e8d8a8" opacity="0.25"/>
</svg>
