<svg xmlns="http://www.w3.org/2000/svg" viewBox="0 0 32 48">
  <!-- shadow -->
  <ellipse cx="17" cy="46" rx="10" ry="2.5" fill="#000" opacity="0.2"/>
  <!-- trunk  dark outline then lighter fill -->
  <path d="M13,44 C13,36 17,27 21,17" fill="none" stroke="#4A3010" stroke-width="8" stroke-linecap="round"/>
  <path d="M13,44 C13,36 17,27 21,17" fill="none" stroke="#7A5828" stroke-width="5" stroke-linecap="round"/>
  <path d="M13.5,42 C13.5,35 17,27 21,17" fill="none" stroke="#A07840" stroke-width="2" stroke-linecap="round" opacity="0.55"/>
  <!-- trunk rings -->
  <ellipse cx="14.5" cy="38" rx="3" ry="1" fill="#5A4020" opacity="0.5" transform="rotate(-10 14.5 38)"/>
  <ellipse cx="16"   cy="30" rx="3" ry="1" fill="#5A4020" opacity="0.5" transform="rotate(-5 16 30)"/>
  <ellipse cx="18.5" cy="22" rx="3" ry="1" fill="#5A4020" opacity="0.5"/>
  <!-- fronds  dark base then lighter -->
  <path d="M21,18 Q10,8 5,6"   fill="none" stroke="#184808" stroke-width="4" stroke-linecap="round"/>
  <path d="M21,18 Q32,8 33,5"  fill="none" stroke="#184808" stroke-width="4" stroke-linecap="round"/>
  <path d="M21,18 Q20,6 19,2"  fill="none" stroke="#184808" stroke-width="4" stroke-linecap="round"/>
  <path d="M21,18 Q11,13 7,14" fill="none" stroke="#184808" stroke-width="3.5" stroke-linecap="round"/>
  <path d="M21,18 Q30,13 32,16" fill="none" stroke="#184808" stroke-width="3.5" stroke-linecap="round"/>
  <path d="M21,18 Q10,8 5,6"   fill="none" stroke="#286E18" stroke-width="2.5" stroke-linecap="round"/>
  <path d="M21,18 Q32,8 33,5"  fill="none" stroke="#286E18" stroke-width="2.5" stroke-linecap="round"/>
  <path d="M21,18 Q20,6 19,2"  fill="none" stroke="#286E18" stroke-width="2.5" stroke-linecap="round"/>
  <path d="M21,18 Q11,13 7,14" fill="none" stroke="#1E5E14" stroke-width="2" stroke-linecap="round"/>
  <path d="M21,18 Q30,13 32,16" fill="none" stroke="#1E5E14" stroke-width="2" stroke-linecap="round"/>
  <!-- coconuts -->
  <circle cx="20" cy="19" r="3"   fill="#4A2E0C"/>
  <circle cx="18" cy="21" r="2.5" fill="#5A3A18"/>
  <circle cx="22" cy="21" r="2.3" fill="#4A2E0C"/>
</svg>