<svg xmlns="http://www.w3.org/2000/svg" viewBox="0 0 32 32">
  <!-- Ground shadow -->
  <ellipse cx="16" cy="28" rx="10" ry="2.5" fill="#1a2a40" opacity="0.2"/>
  <!-- Base ice disc -->
  <ellipse cx="16" cy="22" rx="9" ry="4" fill="#c0ddef" opacity="0.35"/>
  <!-- Petal - top -->
  <polygon points="16,8 13,17 16,15 19,17" fill="#b8d8ee"/>
  <polygon points="16,9 14.5,16 16,14.5 17.5,16" fill="#d4eaf6" opacity="0.7"/>
  <!-- Petal - top-right -->
  <polygon points="24,11 18,17 19,15 21,16" fill="#a8cce4"/>
  <polygon points="23,12 19,16.5 19.5,15 20.5,15.8" fill="#cde4f2" opacity="0.65"/>
  <!-- Petal - bottom-right -->
  <polygon points="25,22 19,19 20,17 22,18" fill="#b0d2ea"/>
  <polygon points="24,21.5 20,18.8 20.5,17.5 21.5,18.2" fill="#d4eaf6" opacity="0.6"/>
  <!-- Petal - bottom-left -->
  <polygon points="7,22 13,19 12,17 10,18" fill="#a8cce4"/>
  <polygon points="8,21.5 12.5,18.8 12,17.5 10.5,18.2" fill="#cde4f2" opacity="0.6"/>
  <!-- Petal - top-left -->
  <polygon points="8,11 14,17 13,15 11,16" fill="#b0d2ea"/>
  <polygon points="9,12 13.5,16.5 13,15 11.5,15.8" fill="#d4eaf6" opacity="0.65"/>
  <!-- Center crystal hub -->
  <circle cx="16" cy="17" r="3" fill="#d8ecf6"/>
  <circle cx="16" cy="17" r="2" fill="#e8f4fb"/>
  <circle cx="16" cy="16.5" r="1" fill="#fff" opacity="0.6"/>
  <!-- Crystalline edge highlights -->
  <line x1="16" y1="9" x2="16" y2="14" stroke="#fff" stroke-width="0.5" opacity="0.4"/>
  <line x1="20" y1="15" x2="24" y2="12" stroke="#fff" stroke-width="0.4" opacity="0.35"/>
  <line x1="20" y1="18" x2="24" y2="21" stroke="#fff" stroke-width="0.4" opacity="0.3"/>
  <line x1="12" y1="18" x2="8" y2="21" stroke="#fff" stroke-width="0.4" opacity="0.3"/>
  <line x1="12" y1="15" x2="8" y2="12" stroke="#fff" stroke-width="0.4" opacity="0.35"/>
  <!-- Sparkle accents -->
  <circle cx="16" cy="9.5" r="0.7" fill="#fff" opacity="0.55"/>
  <circle cx="23" cy="12" r="0.5" fill="#fff" opacity="0.45"/>
  <circle cx="9" cy="12" r="0.5" fill="#fff" opacity="0.4"/>
</svg>
