<svg xmlns="http://www.w3.org/2000/svg" viewBox="0 0 32 32">
  <!-- shadow -->
  <ellipse cx="16" cy="31" rx="11" ry="2" fill="#000" opacity="0.22"/>
  <!-- stalk -->
  <rect x="11" y="20" width="10" height="11" rx="3" fill="#EDD5A0"/>
  <rect x="11.5" y="21" width="3.5" height="9.5" rx="1.5" fill="#F7EBC8" opacity="0.65"/>
  <!-- cap underside (wide shelf) -->
  <ellipse cx="16" cy="21" rx="14" ry="3.5" fill="#A06828"/>
  <!-- cap dark outline silhouette fills tile for clustering -->
  <path d="M2,22 Q2,4 16,4 Q30,4 30,22 Z" fill="#881818"/>
  <!-- cap main colour -->
  <path d="M3.5,22 Q3.5,6.5 16,6.5 Q28.5,6.5 28.5,22 Z" fill="#C02020"/>
  <!-- highlight arc -->
  <path d="M4,21 Q5,10 11,7" fill="none" stroke="#DC4040" stroke-width="3" stroke-linecap="round"/>
  <!-- bright specular highlight -->
  <ellipse cx="9" cy="10" rx="4.5" ry="3.5" fill="#E05050" opacity="0.6"/>
  <!-- white spots -->
  <circle cx="11" cy="16" r="3.2" fill="#FFEEDD" opacity="0.95"/>
  <circle cx="22" cy="13" r="3.8" fill="#FFEEDD" opacity="0.95"/>
  <circle cx="16" cy="10" r="2.4" fill="#FFEEDD" opacity="0.95"/>
  <circle cx="25" cy="19" r="2.0" fill="#FFEEDD" opacity="0.90"/>
  <circle cx="7"  cy="19" r="1.8" fill="#FFEEDD" opacity="0.85"/>
</svg>
