<svg width="32" height="32" viewBox="0 0 32 32" xmlns="http://www.w3.org/2000/svg">
  <!-- Stone A — Clean stone with mortar lines (brick-like pattern) -->
  <!-- Dark mortar/grout base -->
  <rect width="32" height="32" fill="#2A1E40"/>
  <!-- Row 1: two bricks, offset -->
  <rect x="1" y="1" width="14" height="9" fill="#3D2B5E" rx="0.5"/>
  <rect x="17" y="1" width="14" height="9" fill="#3D2B5E" rx="0.5"/>
  <!-- Row 2: offset bricks (staggered) -->
  <rect x="-6" y="12" width="14" height="9" fill="#3D2B5E" rx="0.5"/>
  <rect x="10" y="12" width="14" height="9" fill="#3D2B5E" rx="0.5"/>
  <rect x="26" y="12" width="14" height="9" fill="#3D2B5E" rx="0.5"/>
  <!-- Row 3: same offset as row 1 -->
  <rect x="1" y="23" width="14" height="9" fill="#3D2B5E" rx="0.5"/>
  <rect x="17" y="23" width="14" height="9" fill="#3D2B5E" rx="0.5"/>
  <!-- Bevel highlights: top edge of each brick -->
  <line x1="1" y1="1.5" x2="14" y2="1.5" stroke="#504078" stroke-width="0.8" opacity="0.4"/>
  <line x1="17" y1="1.5" x2="30" y2="1.5" stroke="#504078" stroke-width="0.8" opacity="0.35"/>
  <line x1="10" y1="12.5" x2="23" y2="12.5" stroke="#504078" stroke-width="0.8" opacity="0.35"/>
  <line x1="26" y1="12.5" x2="32" y2="12.5" stroke="#504078" stroke-width="0.8" opacity="0.3"/>
  <line x1="1" y1="23.5" x2="14" y2="23.5" stroke="#504078" stroke-width="0.8" opacity="0.35"/>
  <line x1="17" y1="23.5" x2="30" y2="23.5" stroke="#504078" stroke-width="0.8" opacity="0.3"/>
  <!-- Shadow edges: bottom of each brick -->
  <line x1="1" y1="9.5" x2="14" y2="9.5" stroke="#1E1430" stroke-width="0.6" opacity="0.4"/>
  <line x1="17" y1="9.5" x2="30" y2="9.5" stroke="#1E1430" stroke-width="0.6" opacity="0.35"/>
  <line x1="10" y1="20.5" x2="23" y2="20.5" stroke="#1E1430" stroke-width="0.6" opacity="0.35"/>
  <!-- Subtle surface variation on bricks -->
  <ellipse cx="8" cy="5" rx="3" ry="2" fill="#453370" opacity="0.2"/>
  <ellipse cx="20" cy="16" rx="3" ry="2" fill="#352550" opacity="0.2"/>
</svg>
