<svg width="32" height="32" viewBox="0 0 32 32" xmlns="http://www.w3.org/2000/svg">
  <!-- Sand C — Sand with a faint fossil/shell impression -->
  <rect width="32" height="32" fill="#D4A044"/>
  <!-- Subtle tonal variation -->
  <ellipse cx="8" cy="12" rx="5" ry="4" fill="#E0B060" opacity="0.2"/>
  <!-- Spiral shell fossil impression, center of tile -->
  <path d="M18,16 Q18,12 15,12 Q11,12 11,16 Q11,20 16,20 Q20,20 20,16 Q20,13 17,13" stroke="#BA8838" stroke-width="1" fill="none" opacity="0.45" stroke-linecap="round"/>
  <path d="M17,13 Q14,13 14,16 Q14,18 16,18" stroke="#BA8838" stroke-width="0.8" fill="none" opacity="0.4" stroke-linecap="round"/>
  <!-- Inner spiral dot -->
  <circle cx="16" cy="16" r="0.8" fill="#BA8838" opacity="0.35"/>
  <!-- Faint ridge lines radiating from shell -->
  <line x1="11" y1="14" x2="9" y2="13" stroke="#C49038" stroke-width="0.5" opacity="0.2"/>
  <line x1="20" y1="17" x2="22" y2="18" stroke="#C49038" stroke-width="0.5" opacity="0.2"/>
  <!-- Subtle lighter area around fossil (worn smooth) -->
  <ellipse cx="16" cy="16" rx="7" ry="6" fill="#DEB058" opacity="0.12"/>
  <!-- Sand grain specks -->
  <circle cx="6" cy="26" r="0.5" fill="#BA8838" opacity="0.3"/>
  <circle cx="26" cy="6" r="0.5" fill="#BA8838" opacity="0.3"/>
  <circle cx="24" cy="24" r="0.4" fill="#E8C468" opacity="0.25"/>
</svg>
