<svg xmlns="http://www.w3.org/2000/svg" viewBox="0 0 32 32" width="32" height="32">
  <!-- Base golden wheat floor variant C (same base, wheat stalks accent) -->
  <rect width="32" height="32" fill="#C8A840"/>
  <!-- Faint grain lines -->
  <line x1="0" y1="8" x2="8" y2="0" stroke="#A88820" stroke-width="0.8" opacity="0.5"/>
  <line x1="0" y1="22" x2="22" y2="0" stroke="#A88820" stroke-width="0.8" opacity="0.5"/>
  <line x1="10" y1="32" x2="32" y2="10" stroke="#A88820" stroke-width="0.8" opacity="0.5"/>
  <line x1="26" y1="32" x2="32" y2="26" stroke="#A88820" stroke-width="0.8" opacity="0.5"/>
  <!-- Wheat stalk 1 (left) -->
  <line x1="7" y1="28" x2="8" y2="14" stroke="#8B6A10" stroke-width="1.5" stroke-linecap="round"/>
  <!-- Grain head 1 -->
  <ellipse cx="7" cy="12" rx="2" ry="5" fill="#CC9922" stroke="#8B6A10" stroke-width="1"/>
  <line x1="7" y1="10" x2="5" y2="8" stroke="#8B6A10" stroke-width="1"/>
  <line x1="7" y1="13" x2="5" y2="11" stroke="#8B6A10" stroke-width="1"/>
  <line x1="7" y1="10" x2="9" y2="8" stroke="#8B6A10" stroke-width="1"/>
  <line x1="7" y1="13" x2="9" y2="11" stroke="#8B6A10" stroke-width="1"/>
  <!-- Wheat stalk 2 (right, taller) -->
  <line x1="22" y1="30" x2="23" y2="12" stroke="#8B6A10" stroke-width="1.5" stroke-linecap="round"/>
  <!-- Grain head 2 -->
  <ellipse cx="22" cy="10" rx="2" ry="5" fill="#CC9922" stroke="#8B6A10" stroke-width="1"/>
  <line x1="22" y1="8" x2="20" y2="6" stroke="#8B6A10" stroke-width="1"/>
  <line x1="22" y1="11" x2="20" y2="9" stroke="#8B6A10" stroke-width="1"/>
  <line x1="22" y1="8" x2="24" y2="6" stroke="#8B6A10" stroke-width="1"/>
  <line x1="22" y1="11" x2="24" y2="9" stroke="#8B6A10" stroke-width="1"/>
  <!-- Rounded pebble accent -->
  <ellipse cx="15" cy="23" rx="3" ry="2" fill="#A89020" opacity="0.4"/>
</svg>
