<svg xmlns="http://www.w3.org/2000/svg" viewBox="0 0 64 64" width="64" height="64">
  <!-- Ground shadow -->
  <ellipse cx="32" cy="61" rx="16" ry="4" fill="#00000030"/>
  <!-- Legs -->
  <rect x="22" y="46" width="8" height="13" rx="3" fill="#6B5433" stroke="#1A0A00" stroke-width="2"/>
  <rect x="34" y="46" width="8" height="13" rx="3" fill="#6B5433" stroke="#1A0A00" stroke-width="2"/>
  <!-- Boots -->
  <rect x="21" y="54" width="10" height="7" rx="2" fill="#4A3020" stroke="#1A0A00" stroke-width="2"/>
  <rect x="33" y="54" width="10" height="7" rx="2" fill="#4A3020" stroke="#1A0A00" stroke-width="2"/>
  <!-- Body (apron/tunic) -->
  <rect x="18" y="28" width="28" height="22" rx="5" fill="#887744" stroke="#1A0A00" stroke-width="2.5"/>
  <!-- Belt -->
  <rect x="17" y="43" width="30" height="5" rx="2" fill="#CC8833" stroke="#1A0A00" stroke-width="1.5"/>
  <!-- Number patch on belly -->
  <rect x="25" y="32" width="14" height="10" rx="2" fill="#F5E8C0" stroke="#1A0A00" stroke-width="1.5"/>
  <text x="32" y="41" text-anchor="middle" font-family="Arial" font-size="8" font-weight="bold" fill="#4A2A0A">47</text>
  <!-- Arms -->
  <rect x="4" y="29" width="14" height="9" rx="4" fill="#887744" stroke="#1A0A00" stroke-width="2"/>
  <rect x="46" y="29" width="14" height="9" rx="4" fill="#887744" stroke="#1A0A00" stroke-width="2"/>
  <!-- Gear in left hand -->
  <circle cx="10" cy="24" r="9" fill="none" stroke="#CCAA44" stroke-width="3"/>
  <circle cx="10" cy="24" r="5" fill="#CCAA44" stroke="#1A0A00" stroke-width="1.5"/>
  <circle cx="10" cy="24" r="2" fill="#1A0A00"/>
  <!-- Gear teeth -->
  <rect x="8" y="13" width="4" height="4" rx="1" fill="#CCAA44" stroke="#1A0A00" stroke-width="1"/>
  <rect x="8" y="31" width="4" height="4" rx="1" fill="#CCAA44" stroke="#1A0A00" stroke-width="1"/>
  <rect x="1" y="22" width="4" height="4" rx="1" fill="#CCAA44" stroke="#1A0A00" stroke-width="1"/>
  <rect x="19" y="22" width="4" height="4" rx="1" fill="#CCAA44" stroke="#1A0A00" stroke-width="1"/>
  <!-- Head -->
  <circle cx="32" cy="18" r="13" fill="#C8A060" stroke="#1A0A00" stroke-width="2.5"/>
  <!-- Hat -->
  <ellipse cx="32" cy="7" rx="14" ry="4" fill="#887744" stroke="#1A0A00" stroke-width="2"/>
  <rect x="26" y="2" width="12" height="7" rx="2" fill="#887744" stroke="#1A0A00" stroke-width="2"/>
  <!-- Eyes -->
  <circle cx="27" cy="18" r="3" fill="#1A0A00"/>
  <circle cx="37" cy="18" r="3" fill="#1A0A00"/>
  <circle cx="28" cy="17" r="1" fill="#FFFFFF"/>
  <circle cx="38" cy="17" r="1" fill="#FFFFFF"/>
  <!-- Smile -->
  <path d="M26 23 Q32 27 38 23" stroke="#1A0A00" stroke-width="2" fill="none" stroke-linecap="round"/>
  <!-- Beard -->
  <ellipse cx="32" cy="26" rx="9" ry="4" fill="#C8B080" stroke="#1A0A00" stroke-width="1.5"/>
</svg>
