<svg xmlns="http://www.w3.org/2000/svg" viewBox="0 0 64 64" width="64" height="64">
  <!-- Ground shadow -->
  <ellipse cx="32" cy="61" rx="16" ry="4" fill="#00000030"/>
  <!-- Legs (mid-stride: left forward) -->
  <rect x="20" y="46" width="8" height="13" rx="3" fill="#6B5433" stroke="#1A0A00" stroke-width="2" transform="rotate(-8 24 52)"/>
  <rect x="36" y="46" width="8" height="13" rx="3" fill="#6B5433" stroke="#1A0A00" stroke-width="2" transform="rotate(8 40 52)"/>
  <!-- Boots -->
  <rect x="19" y="53" width="10" height="7" rx="2" fill="#4A3020" stroke="#1A0A00" stroke-width="2"/>
  <rect x="35" y="54" width="10" height="7" rx="2" fill="#4A3020" stroke="#1A0A00" stroke-width="2"/>
  <!-- Body -->
  <rect x="18" y="28" width="28" height="22" rx="5" fill="#887744" stroke="#1A0A00" stroke-width="2.5"/>
  <!-- Belt -->
  <rect x="17" y="43" width="30" height="5" rx="2" fill="#CC8833" stroke="#1A0A00" stroke-width="1.5"/>
  <!-- Number patch — 4 bead row (tens) + 7 bead row (ones) -->
  <rect x="25" y="32" width="14" height="10" rx="2" fill="#F5E8C0" stroke="#1A0A00" stroke-width="1.5"/>
  <line x1="25.5" y1="37" x2="38.5" y2="37" stroke="#8B6A3A" stroke-width="0.8"/>
  <circle cx="27" cy="35" r="1.2" fill="#4A2A0A"/>
  <circle cx="30" cy="35" r="1.2" fill="#4A2A0A"/>
  <circle cx="33" cy="35" r="1.2" fill="#4A2A0A"/>
  <circle cx="36" cy="35" r="1.2" fill="#4A2A0A"/>
  <circle cx="26.5" cy="39.5" r="0.85" fill="#4A2A0A"/>
  <circle cx="28.2" cy="39.5" r="0.85" fill="#4A2A0A"/>
  <circle cx="29.9" cy="39.5" r="0.85" fill="#4A2A0A"/>
  <circle cx="31.6" cy="39.5" r="0.85" fill="#4A2A0A"/>
  <circle cx="33.3" cy="39.5" r="0.85" fill="#4A2A0A"/>
  <circle cx="35" cy="39.5" r="0.85" fill="#4A2A0A"/>
  <circle cx="36.7" cy="39.5" r="0.85" fill="#4A2A0A"/>
  <!-- Arms (swinging) -->
  <rect x="3" y="31" width="14" height="9" rx="4" fill="#887744" stroke="#1A0A00" stroke-width="2" transform="rotate(15 10 35)"/>
  <rect x="47" y="27" width="14" height="9" rx="4" fill="#887744" stroke="#1A0A00" stroke-width="2" transform="rotate(-15 54 31)"/>
  <!-- Gear in left hand (slightly rotated) -->
  <circle cx="9" cy="26" r="9" fill="none" stroke="#CCAA44" stroke-width="3"/>
  <circle cx="9" cy="26" r="5" fill="#CCAA44" stroke="#1A0A00" stroke-width="1.5"/>
  <circle cx="9" cy="26" r="2" fill="#1A0A00"/>
  <rect x="7" y="15" width="4" height="4" rx="1" fill="#CCAA44" stroke="#1A0A00" stroke-width="1"/>
  <rect x="7" y="33" width="4" height="4" rx="1" fill="#CCAA44" stroke="#1A0A00" stroke-width="1"/>
  <rect x="-2" y="24" width="4" height="4" rx="1" fill="#CCAA44" stroke="#1A0A00" stroke-width="1"/>
  <rect x="18" y="24" width="4" height="4" rx="1" fill="#CCAA44" stroke="#1A0A00" stroke-width="1"/>
  <!-- Head -->
  <circle cx="32" cy="18" r="13" fill="#C8A060" stroke="#1A0A00" stroke-width="2.5"/>
  <!-- Hat -->
  <ellipse cx="32" cy="7" rx="14" ry="4" fill="#887744" stroke="#1A0A00" stroke-width="2"/>
  <rect x="26" y="2" width="12" height="7" rx="2" fill="#887744" stroke="#1A0A00" stroke-width="2"/>
  <!-- Eyes -->
  <circle cx="27" cy="18" r="3" fill="#1A0A00"/>
  <circle cx="37" cy="18" r="3" fill="#1A0A00"/>
  <circle cx="28" cy="17" r="1" fill="#FFFFFF"/>
  <circle cx="38" cy="17" r="1" fill="#FFFFFF"/>
  <!-- Open mouth (mid-walk expression) -->
  <ellipse cx="32" cy="24" rx="5" ry="3" fill="#1A0A00"/>
  <!-- Beard -->
  <ellipse cx="32" cy="26" rx="9" ry="4" fill="#C8B080" stroke="#1A0A00" stroke-width="1.5"/>
</svg>
