<svg xmlns="http://www.w3.org/2000/svg" viewBox="0 0 64 64">
  <!-- Ice platform under frog -->
  <ellipse cx="32" cy="58" rx="20" ry="7" fill="#AADDFF" opacity="0.7"/>
  <!-- Body -->
  <ellipse cx="32" cy="42" rx="20" ry="16" fill="#66AADD"/>
  <!-- Belly -->
  <ellipse cx="32" cy="46" rx="14" ry="10" fill="#BBDDFF"/>
  <!-- Frost pattern on belly -->
  <line x1="28" y1="44" x2="36" y2="52" stroke="#88CCFF" stroke-width="1" opacity="0.7"/>
  <line x1="36" y1="44" x2="28" y2="52" stroke="#88CCFF" stroke-width="1" opacity="0.7"/>
  <line x1="32" y1="40" x2="32" y2="54" stroke="#88CCFF" stroke-width="1" opacity="0.7"/>
  <!-- Back legs -->
  <ellipse cx="14" cy="54" rx="8" ry="5" fill="#5599CC" transform="rotate(-20,14,54)"/>
  <ellipse cx="50" cy="54" rx="8" ry="5" fill="#5599CC" transform="rotate(20,50,54)"/>
  <!-- Webbed back toes -->
  <path d="M6,56 Q4,60 8,58 Q6,62 10,60 Q8,64 12,62" fill="none" stroke="#4488BB" stroke-width="1.5"/>
  <path d="M58,56 Q60,60 56,58 Q58,62 54,60 Q56,64 52,62" fill="none" stroke="#4488BB" stroke-width="1.5"/>
  <!-- Head (wide) -->
  <ellipse cx="32" cy="24" rx="20" ry="16" fill="#66AADD"/>
  <!-- Eye bumps -->
  <circle cx="20" cy="18" r="8" fill="#66AADD"/>
  <circle cx="44" cy="18" r="8" fill="#66AADD"/>
  <!-- Eyes -->
  <circle cx="20" cy="17" r="6.5" fill="#CCEEFF"/>
  <circle cx="44" cy="17" r="6.5" fill="#CCEEFF"/>
  <circle cx="20" cy="17" r="4"   fill="#2244AA"/>
  <circle cx="44" cy="17" r="4"   fill="#2244AA"/>
  <circle cx="21.5" cy="15.5" r="1.5" fill="white"/>
  <circle cx="45.5" cy="15.5" r="1.5" fill="white"/>
  <!-- Mouth (wide frog mouth) -->
  <path d="M16,30 Q32,38 48,30" fill="none" stroke="#4477AA" stroke-width="2.5" stroke-linecap="round"/>
  <!-- Front arms -->
  <ellipse cx="12" cy="40" rx="6" ry="4" fill="#5599CC" transform="rotate(-30,12,40)"/>
  <ellipse cx="52" cy="40" rx="6" ry="4" fill="#5599CC" transform="rotate(30,52,40)"/>
  <!-- Ice crystal on head -->
  <polygon points="32,8 29,14 35,14" fill="#AAEEFF" stroke="#66CCFF" stroke-width="1"/>
  <polygon points="32,10 28,15 36,15" fill="none" stroke="#AAEEFF" stroke-width="0.5"/>
</svg>
