<svg xmlns="http://www.w3.org/2000/svg" viewBox="0 0 160 128">
  <!--
    Mycelium Hollow — Giant Spore Circle landmark (5×4 tiles = 160×128px)
    A ring of towering bioluminescent mushrooms surrounding a glowing spore pool.
    Painted back-to-front for correct z-order.
  -->

  <!-- === GROUND BASE === -->
  <ellipse cx="80" cy="84" rx="76" ry="44" fill="#1A3828"/>
  <ellipse cx="80" cy="80" rx="68" ry="38" fill="#223C30"/>
  <!-- Inner darker moss ring around pool -->
  <ellipse cx="80" cy="76" rx="50" ry="28" fill="#162E22"/>

  <!-- === SPORE POOL (centre) === -->
  <ellipse cx="80" cy="78" rx="32" ry="15" fill="#08120E"/>
  <ellipse cx="80" cy="76" rx="26" ry="11" fill="#0A2018"/>
  <!-- Teal bioluminescent shimmer on pool surface -->
  <ellipse cx="80" cy="74" rx="20" ry="7"  fill="#44FFCC" opacity="0.12"/>
  <ellipse cx="72" cy="73" rx="10" ry="3"  fill="#44FFCC" opacity="0.10"/>
  <!-- Spore bubble particles on pool -->
  <circle cx="68" cy="76" r="1.4" fill="#44FFCC" opacity="0.70"/>
  <circle cx="82" cy="72" r="1.0" fill="#BB44FF" opacity="0.65"/>
  <circle cx="92" cy="77" r="1.2" fill="#44FFCC" opacity="0.60"/>
  <circle cx="76" cy="79" r="0.8" fill="#BB44FF" opacity="0.55"/>

  <!-- === BACK-CENTRE MUSHROOM — tall magenta, cx=80 === -->
  <ellipse cx="80" cy="54" rx="8"  ry="2.5" fill="#44111A" opacity="0.5"/>
  <rect    x="76"  y="34" width="8" height="20" rx="3" fill="#C8BEA0"/>
  <rect    x="77"  y="35" width="3" height="18" rx="1.5" fill="#EEE8C8" opacity="0.6"/>
  <ellipse cx="80" cy="34" rx="26" ry="5.5"  fill="#88114A"/>
  <path    d="M54,36 Q54,10 80,10 Q106,10 106,36 Z" fill="#AA1268"/>
  <path    d="M56,35 Q57,16 66,12" fill="none" stroke="#CC4488" stroke-width="3.5" stroke-linecap="round"/>
  <ellipse cx="68" cy="18" rx="8"  ry="5"  fill="#CC3380" opacity="0.55"/>
  <circle  cx="72" cy="24" r="4.5" fill="#EEE8D8" opacity="0.90"/>
  <circle  cx="86" cy="18" r="5.5" fill="#EEE8D8" opacity="0.90"/>
  <circle  cx="96" cy="26" r="3.5" fill="#EEE8D8" opacity="0.85"/>
  <circle  cx="66" cy="30" r="2.5" fill="#EEE8D8" opacity="0.80"/>
  <!-- Cap glow bloom -->
  <ellipse cx="80" cy="36" rx="28" ry="6" fill="#FF44BB" opacity="0.15"/>

  <!-- === BACK-LEFT MUSHROOM — teal-blue cap, cx=30 === -->
  <ellipse cx="30" cy="62" rx="6"  ry="2"   fill="#001A18" opacity="0.45"/>
  <rect    x="27"  y="46" width="6" height="16" rx="2.5" fill="#BEB898"/>
  <rect    x="28"  y="47" width="2.5" height="14" rx="1" fill="#E0D8B8" opacity="0.6"/>
  <ellipse cx="30" cy="46" rx="20" ry="4.5"  fill="#114455"/>
  <path    d="M10,48 Q10,26 30,26 Q50,26 50,48 Z" fill="#1A6680"/>
  <path    d="M12,47 Q13,32 20,29" fill="none" stroke="#2288AA" stroke-width="3" stroke-linecap="round"/>
  <ellipse cx="20" cy="32" rx="6"  ry="4"  fill="#33AACC" opacity="0.55"/>
  <circle  cx="22" cy="38" r="3.5" fill="#EEE8D8" opacity="0.90"/>
  <circle  cx="32" cy="32" r="4.5" fill="#EEE8D8" opacity="0.88"/>
  <circle  cx="42" cy="38" r="3.0" fill="#EEE8D8" opacity="0.82"/>
  <ellipse cx="30" cy="48" rx="22" ry="5" fill="#44CCEE" opacity="0.13"/>

  <!-- === BACK-RIGHT MUSHROOM — pale cream cap, cx=130 === -->
  <ellipse cx="130" cy="62" rx="6"  ry="2"   fill="#111A10" opacity="0.45"/>
  <rect    x="127"  y="46" width="6" height="16" rx="2.5" fill="#BEB898"/>
  <rect    x="128"  y="47" width="2.5" height="14" rx="1" fill="#E0D8B8" opacity="0.6"/>
  <ellipse cx="130" cy="46" rx="20" ry="4.5" fill="#334422"/>
  <path    d="M110,48 Q110,26 130,26 Q150,26 150,48 Z" fill="#DDEEDD"/>
  <path    d="M112,47 Q113,32 120,29" fill="none" stroke="#AACCAA" stroke-width="3" stroke-linecap="round"/>
  <ellipse cx="120" cy="32" rx="6"  ry="4"  fill="#EEFFEE" opacity="0.50"/>
  <circle  cx="122" cy="38" r="3.5" fill="#9933CC" opacity="0.70"/>
  <circle  cx="132" cy="32" r="4.5" fill="#BB44FF" opacity="0.65"/>
  <circle  cx="142" cy="38" r="3.0" fill="#9933CC" opacity="0.60"/>
  <circle  cx="118" cy="42" r="2.5" fill="#BB44FF" opacity="0.55"/>
  <ellipse cx="130" cy="48" rx="22" ry="5"  fill="#AAFFCC" opacity="0.12"/>

  <!-- === LEFT MUSHROOM — large magenta, cx=10 === -->
  <ellipse cx="10"  cy="78" rx="7"  ry="2"   fill="#44111A" opacity="0.40"/>
  <rect    x="6.5"  y="60" width="7" height="18" rx="3" fill="#C8BEA0"/>
  <rect    x="7.5"  y="61" width="3" height="16" rx="1.5" fill="#EEE8C8" opacity="0.6"/>
  <ellipse cx="10"  cy="60" rx="22" ry="5"   fill="#88114A"/>
  <path    d="M-12,62 Q-12,38 10,38 Q32,38 32,62 Z" fill="#AA1268"/>
  <path    d="M-10,61 Q-9,44 0,40" fill="none" stroke="#CC4488" stroke-width="3" stroke-linecap="round"/>
  <ellipse cx="0"   cy="46" rx="7"  ry="5"  fill="#CC3380" opacity="0.50"/>
  <circle  cx="2"   cy="52" r="4.0" fill="#EEE8D8" opacity="0.90"/>
  <circle  cx="14"  cy="44" r="5.0" fill="#EEE8D8" opacity="0.88"/>
  <circle  cx="24"  cy="52" r="3.5" fill="#EEE8D8" opacity="0.82"/>
  <ellipse cx="10"  cy="62" rx="24" ry="5"  fill="#FF44BB" opacity="0.14"/>

  <!-- === RIGHT MUSHROOM — large teal-blue, cx=150 === -->
  <ellipse cx="150" cy="78" rx="7"  ry="2"   fill="#001A18" opacity="0.40"/>
  <rect    x="147"  y="60" width="7" height="18" rx="3" fill="#C0BA9A"/>
  <rect    x="148"  y="61" width="3" height="16" rx="1.5" fill="#E0D8B8" opacity="0.6"/>
  <ellipse cx="150" cy="60" rx="22" ry="5"   fill="#114455"/>
  <path    d="M128,62 Q128,38 150,38 Q172,38 172,62 Z" fill="#1A6680"/>
  <path    d="M130,61 Q131,44 140,40" fill="none" stroke="#2288AA" stroke-width="3" stroke-linecap="round"/>
  <ellipse cx="140" cy="46" rx="7"  ry="5"  fill="#33AACC" opacity="0.50"/>
  <circle  cx="138" cy="52" r="4.0" fill="#EEE8D8" opacity="0.90"/>
  <circle  cx="148" cy="44" r="5.0" fill="#EEE8D8" opacity="0.88"/>
  <circle  cx="158" cy="52" r="3.5" fill="#EEE8D8" opacity="0.82"/>
  <ellipse cx="150" cy="62" rx="24" ry="5"  fill="#44CCEE" opacity="0.14"/>

  <!-- === FRONT-LEFT MUSHROOM — wide cream/purple, cx=40 === -->
  <ellipse cx="40"  cy="102" rx="9" ry="3"   fill="#111A10" opacity="0.45"/>
  <rect    x="36"   y="80"  width="8" height="22" rx="3" fill="#C8BEA0"/>
  <rect    x="37"   y="81"  width="3.5" height="20" rx="1.5" fill="#EEE8C8" opacity="0.6"/>
  <ellipse cx="40"  cy="80" rx="26" ry="5.5" fill="#334422"/>
  <path    d="M14,82 Q14,56 40,56 Q66,56 66,82 Z" fill="#DDEEDD"/>
  <path    d="M16,81 Q17,62 26,58" fill="none" stroke="#AACCAA" stroke-width="3.5" stroke-linecap="round"/>
  <ellipse cx="26"  cy="64" rx="8"  ry="5"  fill="#EEFFEE" opacity="0.50"/>
  <circle  cx="28"  cy="72" r="4.5" fill="#9933CC" opacity="0.75"/>
  <circle  cx="40"  cy="64" r="5.5" fill="#BB44FF" opacity="0.70"/>
  <circle  cx="52"  cy="72" r="4.0" fill="#9933CC" opacity="0.65"/>
  <circle  cx="24"  cy="76" r="3.0" fill="#BB44FF" opacity="0.60"/>
  <circle  cx="56"  cy="76" r="2.5" fill="#9933CC" opacity="0.55"/>
  <ellipse cx="40"  cy="82" rx="28" ry="6"  fill="#AAFFCC" opacity="0.12"/>

  <!-- === FRONT-RIGHT MUSHROOM — wide magenta, cx=120 === -->
  <ellipse cx="120" cy="102" rx="9" ry="3"   fill="#44111A" opacity="0.45"/>
  <rect    x="116"  y="80"  width="8" height="22" rx="3" fill="#C8BEA0"/>
  <rect    x="117"  y="81"  width="3.5" height="20" rx="1.5" fill="#EEE8C8" opacity="0.6"/>
  <ellipse cx="120" cy="80" rx="26" ry="5.5" fill="#88114A"/>
  <path    d="M94,82 Q94,56 120,56 Q146,56 146,82 Z" fill="#AA1268"/>
  <path    d="M96,81 Q97,62 106,58" fill="none" stroke="#CC4488" stroke-width="3.5" stroke-linecap="round"/>
  <ellipse cx="106" cy="64" rx="8"  ry="5"  fill="#CC3380" opacity="0.55"/>
  <circle  cx="108" cy="72" r="4.5" fill="#EEE8D8" opacity="0.90"/>
  <circle  cx="120" cy="64" r="5.5" fill="#EEE8D8" opacity="0.88"/>
  <circle  cx="132" cy="72" r="4.0" fill="#EEE8D8" opacity="0.84"/>
  <circle  cx="104" cy="76" r="3.0" fill="#EEE8D8" opacity="0.80"/>
  <circle  cx="136" cy="76" r="2.5" fill="#EEE8D8" opacity="0.75"/>
  <ellipse cx="120" cy="82" rx="28" ry="6"  fill="#FF44BB" opacity="0.15"/>

  <!-- === AMBIENT GLOW & SPORE FLOATERS === -->
  <!-- Soft ambient bioluminescence on ground -->
  <ellipse cx="80"  cy="92" rx="60" ry="22" fill="#44FFCC" opacity="0.04"/>
  <!-- Floating spore particles above pool -->
  <circle cx="62"  cy="58" r="1.5" fill="#BB44FF" opacity="0.65"/>
  <circle cx="90"  cy="52" r="1.2" fill="#44FFCC" opacity="0.70"/>
  <circle cx="75"  cy="44" r="1.0" fill="#BB44FF" opacity="0.60"/>
  <circle cx="100" cy="60" r="1.3" fill="#44FFCC" opacity="0.60"/>
  <circle cx="60"  cy="66" r="0.9" fill="#BB44FF" opacity="0.55"/>
  <circle cx="45"  cy="88" r="1.1" fill="#44FFCC" opacity="0.55"/>
  <circle cx="115" cy="88" r="1.0" fill="#BB44FF" opacity="0.55"/>
</svg>
