<svg xmlns="http://www.w3.org/2000/svg" viewBox="0 0 48 56">
<!-- Mimi walk right frame B: side view facing right, back paw forward, front paw back -->
<!-- Tail up-left behind her -->
<path d="M14,32 C2,20 0,32 4,44" fill="none" stroke="#505058" stroke-width="4" stroke-linecap="round"/>
<path d="M14,32 C2,20 0,32 4,44" fill="none" stroke="#A8A8B4" stroke-width="2.5" stroke-linecap="round" stroke-dasharray="4,3"/>
<!-- Body side view -->
<ellipse cx="23" cy="34" rx="13" ry="11" fill="#A8A8B4" stroke="#2A2A36" stroke-width="1.5"/>
<ellipse cx="27" cy="37" rx="7" ry="7" fill="#D0D0DC"/>
<path d="M13,25 Q10,34 13,43" fill="none" stroke="#505058" stroke-width="2" stroke-linecap="round" opacity="0.5"/>
<!-- Bandana side -->
<path d="M20,25 Q28,29 36,26 Q35,31 28,32 Q21,31 20,25 Z" fill="#DD2222" stroke="#991111" stroke-width="0.8"/>
<path d="M20,25 Q28,28 36,26" fill="none" stroke="#FF5555" stroke-width="1" stroke-linecap="round"/>
<!-- Near front arm back -->
<ellipse cx="38" cy="30" rx="3" ry="7" fill="#A8A8B4" stroke="#2A2A36" stroke-width="1.2" transform="rotate(-15,38,26)"/>
<ellipse cx="36.5" cy="37" rx="4" ry="2.5" fill="#888894" stroke="#2A2A36" stroke-width="1"/>
<line x1="34" y1="38.5" x2="34" y2="40.5" stroke="#505058" stroke-width="1"/>
<line x1="37" y1="39"   x2="37" y2="41" stroke="#505058" stroke-width="1"/>
<line x1="40" y1="38.5" x2="40" y2="40.5" stroke="#505058" stroke-width="1"/>
<!-- Far front arm static -->
<ellipse cx="30" cy="31" rx="3" ry="6" fill="#8C8CA0" stroke="#2A2A36" stroke-width="1" transform="rotate(5,30,27)"/>
<ellipse cx="30.5" cy="37" rx="3.5" ry="2" fill="#707080" stroke="#2A2A36" stroke-width="0.8"/>
<!-- Near back leg extended forward -->
<ellipse cx="28" cy="46" rx="5" ry="5.5" fill="#A8A8B4" stroke="#2A2A36" stroke-width="1.2" transform="rotate(15,28,42)"/>
<ellipse cx="29.5" cy="53.5" rx="6.5" ry="2.8" fill="#888894" stroke="#2A2A36" stroke-width="1"/>
<line x1="24.5" y1="55" x2="24.5" y2="55.5" stroke="#505058" stroke-width="1"/>
<line x1="29.5" y1="55.5" x2="29.5" y2="56" stroke="#505058" stroke-width="1"/>
<line x1="34.5" y1="55" x2="34.5" y2="55.5" stroke="#505058" stroke-width="1"/>
<!-- Far back leg static -->
<ellipse cx="18" cy="44" rx="5" ry="5" fill="#8C8CA0" stroke="#2A2A36" stroke-width="1"/>
<ellipse cx="17" cy="51" rx="6" ry="2.5" fill="#707080" stroke="#2A2A36" stroke-width="0.8"/>
<!-- Head side-right (same) -->
<circle cx="34" cy="14" r="11" fill="#A8A8B4" stroke="#2A2A36" stroke-width="1.5"/>
<polygon points="42,8 47,0 36,4" fill="#A8A8B4" stroke="#2A2A36" stroke-width="1.5" stroke-linejoin="round"/>
<polygon points="41,7.5 45,1 36,4.5" fill="#FFAACC"/>
<polygon points="29,6 27,-1 22,3" fill="#A8A8B4" stroke="#2A2A36" stroke-width="1.5" stroke-linejoin="round"/>
<path d="M26,7 L30,3 L34,5 L38,3 L42,7" fill="none" stroke="#505058" stroke-width="1.8" stroke-linecap="round" stroke-linejoin="round"/>
<ellipse cx="38" cy="16" rx="4" ry="3.5" fill="#44BB44" stroke="#226622" stroke-width="1.2"/>
<ellipse cx="38" cy="16" rx="1.3" ry="2.8" fill="#111120"/>
<circle cx="36.5" cy="15" r="1" fill="white"/>
<polygon points="44,19 42,21.5 45,21.5" fill="#FF7799"/>
<path d="M42,21.5 Q43.5,23.5 45,21.5" fill="none" stroke="#CC3355" stroke-width="0.9" stroke-linecap="round"/>
<line x1="44" y1="19" x2="53" y2="17" stroke="#888894" stroke-width="0.8"/>
<line x1="44" y1="21" x2="53" y2="23" stroke="#888894" stroke-width="0.8"/>
<line x1="40" y1="19" x2="51" y2="16" stroke="#888894" stroke-width="0.7"/>
</svg>
