<svg xmlns="http://www.w3.org/2000/svg" viewBox="0 0 48 56">
<!-- Mimi walk right frame A: side view facing right, front paw extended — fierce Link/Puss aesthetic -->
<!-- Tail up-left behind her -->
<path d="M14,32 C4,22 1,30 6,42" fill="none" stroke="#505058" stroke-width="4" stroke-linecap="round"/>
<path d="M14,32 C4,22 1,30 6,42" fill="none" stroke="#A8A8B4" stroke-width="2.5" stroke-linecap="round" stroke-dasharray="4,3"/>
<!-- Cape trailing left (behind her as she moves right) -->
<path d="M20,30 Q6,36 2,52 Q12,50 16,46 Q20,50 24,46" fill="#2A1A55" stroke="#1A1035" stroke-width="1.2"/>
<path d="M20,30 Q12,32 6,36" fill="none" stroke="#5533AA" stroke-width="1.2"/>
<!-- Body side view -->
<ellipse cx="23" cy="34" rx="13" ry="11" fill="#A8A8B4" stroke="#2A2A36" stroke-width="1.5"/>
<!-- Belly patch -->
<ellipse cx="27" cy="37" rx="7" ry="7" fill="#D0D0DC"/>
<!-- Back stripe on flank -->
<path d="M13,25 Q10,34 13,43" fill="none" stroke="#505058" stroke-width="2" stroke-linecap="round" opacity="0.5"/>
<!-- Belt side -->
<rect x="14" y="41" width="18" height="2.5" rx="1.2" fill="#7A5A12" stroke="#4A3608" stroke-width="0.8"/>
<!-- Sword hilt clearly visible on near hip (facing right) -->
<rect x="12" y="37" width="5" height="1.2" rx="0.6" fill="#C8A832" stroke="#8B6914" stroke-width="0.5"/>
<rect x="13.5" y="33" width="1.8" height="6" rx="0.7" fill="#AAAABC" stroke="#2A2A36" stroke-width="0.6"/>
<ellipse cx="14.4" cy="40" rx="1.2" ry="0.8" fill="#C8A832" stroke="#8B6914" stroke-width="0.4"/>
<!-- Neckerchief side (right-facing) -->
<path d="M20,25 Q28,29 36,26 Q35,31 28,32 Q21,31 20,25 Z" fill="#DD2222" stroke="#991111" stroke-width="0.8"/>
<path d="M20,25 Q28,28 36,26" fill="none" stroke="#FF5555" stroke-width="1" stroke-linecap="round"/>
<!-- Far front arm (static) -->
<ellipse cx="30" cy="31" rx="3" ry="6" fill="#8C8CA0" stroke="#2A2A36" stroke-width="1" transform="rotate(5,30,27)"/>
<ellipse cx="30.5" cy="37" rx="3.5" ry="2" fill="#707080" stroke="#2A2A36" stroke-width="0.8"/>
<!-- Near front arm extended right -->
<ellipse cx="41" cy="28" rx="3" ry="7" fill="#A8A8B4" stroke="#2A2A36" stroke-width="1.2" transform="rotate(20,41,24)"/>
<ellipse cx="44" cy="34.5" rx="4" ry="2.5" fill="#888894" stroke="#2A2A36" stroke-width="1"/>
<line x1="41" y1="36" x2="41" y2="38" stroke="#505058" stroke-width="1"/>
<line x1="44" y1="36.5" x2="44" y2="38.5" stroke="#505058" stroke-width="1"/>
<line x1="47" y1="36" x2="47" y2="38" stroke="#505058" stroke-width="1"/>
<!-- Far back leg -->
<ellipse cx="22" cy="46" rx="5" ry="5" fill="#8C8CA0" stroke="#2A2A36" stroke-width="1"/>
<ellipse cx="21" cy="53" rx="6" ry="2.5" fill="#707080" stroke="#2A2A36" stroke-width="0.8"/>
<!-- Near back leg forward -->
<ellipse cx="18" cy="46" rx="5" ry="5.5" fill="#A8A8B4" stroke="#2A2A36" stroke-width="1.2" transform="rotate(10,18,42)"/>
<ellipse cx="18.5" cy="53.5" rx="6.5" ry="2.8" fill="#888894" stroke="#2A2A36" stroke-width="1"/>
<line x1="13.5" y1="55" x2="13.5" y2="55.5" stroke="#505058" stroke-width="1"/>
<line x1="18.5" y1="55.5" x2="18.5" y2="56" stroke="#505058" stroke-width="1"/>
<line x1="23.5" y1="55" x2="23.5" y2="55.5" stroke="#505058" stroke-width="1"/>
<!-- Head side-right -->
<circle cx="34" cy="14" r="11" fill="#A8A8B4" stroke="#2A2A36" stroke-width="1.5"/>
<!-- Right ear (front ear) -->
<polygon points="42,8 47,0 36,4" fill="#A8A8B4" stroke="#2A2A36" stroke-width="1.5" stroke-linejoin="round"/>
<polygon points="41,7.5 45,1 36,4.5" fill="#FFAACC"/>
<!-- Left ear (back, partially hidden) -->
<polygon points="29,6 27,-1 22,3" fill="#A8A8B4" stroke="#2A2A36" stroke-width="1.5" stroke-linejoin="round"/>
<!-- Green Link cap (side, tip droops right) -->
<ellipse cx="34" cy="8" rx="9" ry="2.5" fill="#3A7034" stroke="#254E23" stroke-width="1"/>
<path d="M25,8 Q34,4 43,8 Q41,2 38,0 Q34,2 30,0 Q27,2 25,8 Z" fill="#4A9044" stroke="#2A5A28" stroke-width="1"/>
<!-- Cap tip drooping right -->
<path d="M38,0 Q45,-1 47,5 L43,4 Q42,2 38,0 Z" fill="#4A9044" stroke="#2A5A28" stroke-width="0.8"/>
<!-- Fierce brow (right side) -->
<path d="M41,11 Q37,8 34,9.5" fill="none" stroke="#2A2A36" stroke-width="2" stroke-linecap="round"/>
<!-- One eye visible (right/near eye) — large Puss-in-Boots -->
<ellipse cx="38" cy="16" rx="4.2" ry="4.5" fill="#1E7A47"/>
<ellipse cx="38" cy="16" rx="2.8" ry="3.2" fill="#2EAA67"/>
<ellipse cx="38" cy="16.5" rx="1.5" ry="2.8" fill="#111120"/>
<circle cx="36.5" cy="14.5" r="1.3" fill="white"/>
<circle cx="39.2" cy="18" r="0.6" fill="white" opacity="0.4"/>
<!-- Nose + smirk + fang on right side -->
<polygon points="44,19 42,21.5 45,21.5" fill="#FF7799"/>
<path d="M42,21.5 Q43,23 44,22.5" fill="none" stroke="#CC3355" stroke-width="1" stroke-linecap="round"/>
<path d="M44,22.5 Q44.5,23 45,21.5" fill="none" stroke="#CC3355" stroke-width="1" stroke-linecap="round"/>
<line x1="44.2" y1="21.5" x2="43.8" y2="23.2" stroke="white" stroke-width="0.9" stroke-linecap="round"/>
<!-- Whiskers pointing right (angled up) -->
<line x1="44" y1="19" x2="53" y2="16" stroke="#888894" stroke-width="0.8"/>
<line x1="44" y1="21" x2="53" y2="23" stroke="#888894" stroke-width="0.8"/>
<line x1="40" y1="19" x2="51" y2="15" stroke="#888894" stroke-width="0.7"/>
</svg>