<svg xmlns="http://www.w3.org/2000/svg" viewBox="0 0 48 56">
<!-- Mimi walk down frame B: front view, right leg forward left leg back — fierce Link/Puss aesthetic -->
<!-- Tail curves right (behind body) -->
<path d="M16,36 C8,30 4,38 8,46" fill="none" stroke="#505058" stroke-width="4" stroke-linecap="round"/>
<path d="M16,36 C8,30 4,38 8,46" fill="none" stroke="#A8A8B4" stroke-width="2.5" stroke-linecap="round" stroke-dasharray="4,3"/>
<!-- Cape (behind body) -->
<path d="M15,32 Q8,43 11,55 Q24,49 37,55 Q40,43 33,32" fill="#2A1A55" stroke="#1A1035" stroke-width="1.2"/>
<path d="M15,32 Q24,36 33,32" fill="none" stroke="#5533AA" stroke-width="1.2"/>
<!-- Body -->
<ellipse cx="24" cy="34" rx="10" ry="11" fill="#A8A8B4" stroke="#2A2A36" stroke-width="1.5"/>
<ellipse cx="24" cy="36" rx="5.5" ry="7.5" fill="#D0D0DC"/>
<path d="M14.5,28 Q16,34 14.5,40" fill="none" stroke="#505058" stroke-width="1.5" stroke-linecap="round" opacity="0.6"/>
<path d="M33.5,28 Q32,34 33.5,40" fill="none" stroke="#505058" stroke-width="1.5" stroke-linecap="round" opacity="0.6"/>
<!-- Belt -->
<rect x="16" y="42" width="16" height="2.5" rx="1.2" fill="#7A5A12" stroke="#4A3608" stroke-width="0.8"/>
<rect x="21.5" y="41.5" width="4" height="3.5" rx="0.8" fill="#FFD700" stroke="#8B6914" stroke-width="0.7"/>
<!-- Sword hilt (right hip) -->
<rect x="31" y="38" width="5" height="1.2" rx="0.6" fill="#C8A832" stroke="#8B6914" stroke-width="0.5"/>
<rect x="32.5" y="34" width="1.8" height="6.5" rx="0.7" fill="#AAAABC" stroke="#2A2A36" stroke-width="0.6"/>
<ellipse cx="33.4" cy="41" rx="1.2" ry="0.8" fill="#C8A832" stroke="#8B6914" stroke-width="0.4"/>
<!-- Arms counter-swing: left arm forward -->
<ellipse cx="13.5" cy="32" rx="3.5" ry="7" fill="#A8A8B4" stroke="#2A2A36" stroke-width="1.2" transform="rotate(12,13.5,28)"/>
<ellipse cx="34.5" cy="33" rx="3.5" ry="7" fill="#A8A8B4" stroke="#2A2A36" stroke-width="1.2" transform="rotate(-8,34.5,30)"/>
<ellipse cx="12.5" cy="37.5" rx="4" ry="2.5" fill="#888894" stroke="#2A2A36" stroke-width="1"/>
<ellipse cx="36" cy="39" rx="4" ry="2.5" fill="#888894" stroke="#2A2A36" stroke-width="1"/>
<line x1="9"  y1="39" x2="9"  y2="41.5" stroke="#505058" stroke-width="1"/>
<line x1="12" y1="40" x2="12" y2="42.5" stroke="#505058" stroke-width="1"/>
<line x1="15" y1="39" x2="15" y2="41.5" stroke="#505058" stroke-width="1"/>
<line x1="32" y1="40.5" x2="32" y2="43" stroke="#505058" stroke-width="1"/>
<line x1="35" y1="41.5" x2="35" y2="44" stroke="#505058" stroke-width="1"/>
<line x1="38" y1="40.5" x2="38" y2="43" stroke="#505058" stroke-width="1"/>
<!-- Neckerchief -->
<path d="M14.5,24 Q24,28 33.5,24 Q32,30 24,31 Q16,30 14.5,24 Z" fill="#DD2222" stroke="#991111" stroke-width="0.8"/>
<path d="M14.5,24 Q24,27 33.5,24" fill="none" stroke="#FF5555" stroke-width="1.2" stroke-linecap="round"/>
<path d="M14.5,24 L11,30 L16,28.5 Z" fill="#BB1111"/>
<!-- Legs: right leg forward, left leg back -->
<ellipse cx="20" cy="44" rx="5.5" ry="6" fill="#A8A8B4" stroke="#2A2A36" stroke-width="1.2" transform="rotate(10,20,40)"/>
<ellipse cx="28" cy="45" rx="5.5" ry="6" fill="#A8A8B4" stroke="#2A2A36" stroke-width="1.2" transform="rotate(-10,28,40)"/>
<ellipse cx="20" cy="51" rx="6.5" ry="2.8" fill="#888894" stroke="#2A2A36" stroke-width="1"/>
<ellipse cx="28.5" cy="52.5" rx="6.5" ry="2.8" fill="#888894" stroke="#2A2A36" stroke-width="1"/>
<line x1="15" y1="52" x2="15" y2="53.5" stroke="#505058" stroke-width="1"/>
<line x1="20" y1="53" x2="20" y2="54.5" stroke="#505058" stroke-width="1"/>
<line x1="25" y1="52" x2="25" y2="53.5" stroke="#505058" stroke-width="1"/>
<line x1="23.5" y1="53.5" x2="23.5" y2="55" stroke="#505058" stroke-width="1"/>
<line x1="28.5" y1="54.5" x2="28.5" y2="55.5" stroke="#505058" stroke-width="1"/>
<line x1="33.5" y1="53.5" x2="33.5" y2="55" stroke="#505058" stroke-width="1"/>
<!-- Head -->
<circle cx="24" cy="13" r="11" fill="#A8A8B4" stroke="#2A2A36" stroke-width="1.5"/>
<polygon points="13,8 8,0 18,5" fill="#A8A8B4" stroke="#2A2A36" stroke-width="1.5" stroke-linejoin="round"/>
<polygon points="35,8 40,0 30,5" fill="#A8A8B4" stroke="#2A2A36" stroke-width="1.5" stroke-linejoin="round"/>
<polygon points="13.5,7.5 9,1 18,5.5" fill="#FFAACC"/>
<polygon points="34.5,7.5 39,1 30,5.5" fill="#FFAACC"/>
<!-- Green Link cap -->
<ellipse cx="24" cy="8" rx="10" ry="2.8" fill="#3A7034" stroke="#254E23" stroke-width="1"/>
<path d="M14,8 Q24,4 34,8 Q32,2 28,0 Q25,-2 24,1 Q23,-2 20,0 Q16,2 14,8 Z" fill="#4A9044" stroke="#2A5A28" stroke-width="1"/>
<path d="M28,0 Q36,-2 38,4 L34,3 Q33,1 28,0 Z" fill="#4A9044" stroke="#2A5A28" stroke-width="0.8"/>
<!-- Fierce brows -->
<path d="M15,11.5 Q19,9 22,10.5" fill="none" stroke="#2A2A36" stroke-width="2" stroke-linecap="round"/>
<path d="M33,11.5 Q29,9 26,10.5" fill="none" stroke="#2A2A36" stroke-width="2" stroke-linecap="round"/>
<!-- Eyes: large layered Puss-in-Boots -->
<ellipse cx="19" cy="14" rx="4.5" ry="4.8" fill="#1E7A47"/>
<ellipse cx="29" cy="14" rx="4.5" ry="4.8" fill="#1E7A47"/>
<ellipse cx="19" cy="14" rx="3" ry="3.5" fill="#2EAA67"/>
<ellipse cx="29" cy="14" rx="3" ry="3.5" fill="#2EAA67"/>
<ellipse cx="19" cy="14.5" rx="1.7" ry="3" fill="#111"/>
<ellipse cx="29" cy="14.5" rx="1.7" ry="3" fill="#111"/>
<circle cx="20.5" cy="12.5" r="1.4" fill="white"/>
<circle cx="30.5" cy="12.5" r="1.4" fill="white"/>
<circle cx="17.8" cy="16" r="0.6" fill="white" opacity="0.4"/>
<circle cx="27.8" cy="16" r="0.6" fill="white" opacity="0.4"/>
<!-- Nose -->
<polygon points="24,19 22,21 26,21" fill="#FF7799"/>
<!-- Determined smirk + fang -->
<path d="M22,21 Q23.5,23 24,22.5" fill="none" stroke="#CC3355" stroke-width="1.1" stroke-linecap="round"/>
<path d="M24,22.5 Q24.5,23 26,21" fill="none" stroke="#CC3355" stroke-width="1.1" stroke-linecap="round"/>
<line x1="22.8" y1="21" x2="22.4" y2="23" stroke="white" stroke-width="1" stroke-linecap="round"/>
<!-- Whiskers -->
<line x1="21" y1="19.5" x2="4"  y2="16" stroke="#888894" stroke-width="0.8"/>
<line x1="21" y1="21"   x2="4"  y2="24" stroke="#888894" stroke-width="0.8"/>
<line x1="27" y1="19.5" x2="44" y2="16" stroke="#888894" stroke-width="0.8"/>
<line x1="27" y1="21"   x2="44" y2="24" stroke="#888894" stroke-width="0.8"/>
</svg>