<svg xmlns="http://www.w3.org/2000/svg" viewBox="0 0 48 56">
<!-- Mimi walk left frame B: side view facing left, back paw forward, front paw back -->
<!-- Tail up-right behind her, slight different angle -->
<path d="M34,32 C46,20 48,32 44,44" fill="none" stroke="#505058" stroke-width="4" stroke-linecap="round"/>
<path d="M34,32 C46,20 48,32 44,44" fill="none" stroke="#A8A8B4" stroke-width="2.5" stroke-linecap="round" stroke-dasharray="4,3"/>
<!-- Body side view -->
<ellipse cx="25" cy="34" rx="13" ry="11" fill="#A8A8B4" stroke="#2A2A36" stroke-width="1.5"/>
<ellipse cx="21" cy="37" rx="7" ry="7" fill="#D0D0DC"/>
<path d="M35,25 Q38,34 35,43" fill="none" stroke="#505058" stroke-width="2" stroke-linecap="round" opacity="0.5"/>
<!-- Bandana side -->
<path d="M12,25 Q20,29 28,26 Q27,31 20,32 Q13,31 12,25 Z" fill="#DD2222" stroke="#991111" stroke-width="0.8"/>
<path d="M12,25 Q20,28 28,26" fill="none" stroke="#FF5555" stroke-width="1" stroke-linecap="round"/>
<!-- Near front arm back -->
<ellipse cx="10" cy="30" rx="3" ry="7" fill="#A8A8B4" stroke="#2A2A36" stroke-width="1.2" transform="rotate(15,10,26)"/>
<ellipse cx="11.5" cy="37" rx="4" ry="2.5" fill="#888894" stroke="#2A2A36" stroke-width="1"/>
<line x1="8"  y1="38.5" x2="8"  y2="40.5" stroke="#505058" stroke-width="1"/>
<line x1="11" y1="39"   x2="11" y2="41" stroke="#505058" stroke-width="1"/>
<line x1="14" y1="38.5" x2="14" y2="40.5" stroke="#505058" stroke-width="1"/>
<!-- Far front arm static -->
<ellipse cx="18" cy="31" rx="3" ry="6" fill="#8C8CA0" stroke="#2A2A36" stroke-width="1" transform="rotate(-5,18,27)"/>
<ellipse cx="17.5" cy="37" rx="3.5" ry="2" fill="#707080" stroke="#2A2A36" stroke-width="0.8"/>
<!-- Near back leg extended forward -->
<ellipse cx="20" cy="46" rx="5" ry="5.5" fill="#A8A8B4" stroke="#2A2A36" stroke-width="1.2" transform="rotate(-15,20,42)"/>
<ellipse cx="18.5" cy="53.5" rx="6.5" ry="2.8" fill="#888894" stroke="#2A2A36" stroke-width="1"/>
<line x1="13.5" y1="55" x2="13.5" y2="55.5" stroke="#505058" stroke-width="1"/>
<line x1="18.5" y1="55.5" x2="18.5" y2="56" stroke="#505058" stroke-width="1"/>
<line x1="23.5" y1="55" x2="23.5" y2="55.5" stroke="#505058" stroke-width="1"/>
<!-- Far back leg static -->
<ellipse cx="30" cy="44" rx="5" ry="5" fill="#8C8CA0" stroke="#2A2A36" stroke-width="1"/>
<ellipse cx="31" cy="51" rx="6" ry="2.5" fill="#707080" stroke="#2A2A36" stroke-width="0.8"/>
<!-- Head side-left (same) -->
<circle cx="14" cy="14" r="11" fill="#A8A8B4" stroke="#2A2A36" stroke-width="1.5"/>
<polygon points="6,8 1,0 12,4" fill="#A8A8B4" stroke="#2A2A36" stroke-width="1.5" stroke-linejoin="round"/>
<polygon points="7,7.5 3,1 12,4.5" fill="#FFAACC"/>
<polygon points="19,6 21,-1 26,3" fill="#A8A8B4" stroke="#2A2A36" stroke-width="1.5" stroke-linejoin="round"/>
<path d="M6,7 L10,3 L14,5 L18,3 L22,7" fill="none" stroke="#505058" stroke-width="1.8" stroke-linecap="round" stroke-linejoin="round"/>
<ellipse cx="10" cy="16" rx="4" ry="3.5" fill="#44BB44" stroke="#226622" stroke-width="1.2"/>
<ellipse cx="10" cy="16" rx="1.3" ry="2.8" fill="#111120"/>
<circle cx="11.5" cy="15" r="1" fill="white"/>
<polygon points="4,19 3,21.5 6,21.5" fill="#FF7799"/>
<path d="M3,21.5 Q4.5,23.5 6,21.5" fill="none" stroke="#CC3355" stroke-width="0.9" stroke-linecap="round"/>
<line x1="4"  y1="19" x2="-5" y2="17" stroke="#888894" stroke-width="0.8"/>
<line x1="4"  y1="21" x2="-5" y2="23" stroke="#888894" stroke-width="0.8"/>
<line x1="8"  y1="19" x2="-3" y2="16" stroke="#888894" stroke-width="0.7"/>
</svg>
