<svg xmlns="http://www.w3.org/2000/svg" viewBox="0 0 48 56">
<!-- Mimi walk left frame B: side view facing left, back paw forward, front paw back — fierce Link/Puss aesthetic -->
<!-- Tail up-right behind her, slight different angle -->
<path d="M34,32 C46,20 48,32 44,44" fill="none" stroke="#505058" stroke-width="4" stroke-linecap="round"/>
<path d="M34,32 C46,20 48,32 44,44" fill="none" stroke="#A8A8B4" stroke-width="2.5" stroke-linecap="round" stroke-dasharray="4,3"/>
<!-- Cape trailing right -->
<path d="M28,30 Q42,36 46,52 Q36,50 32,46 Q28,50 24,46" fill="#2A1A55" stroke="#1A1035" stroke-width="1.2"/>
<path d="M28,30 Q36,32 42,36" fill="none" stroke="#5533AA" stroke-width="1.2"/>
<!-- Body side view -->
<ellipse cx="25" cy="34" rx="13" ry="11" fill="#A8A8B4" stroke="#2A2A36" stroke-width="1.5"/>
<ellipse cx="21" cy="37" rx="7" ry="7" fill="#D0D0DC"/>
<path d="M35,25 Q38,34 35,43" fill="none" stroke="#505058" stroke-width="2" stroke-linecap="round" opacity="0.5"/>
<!-- Belt side -->
<rect x="16" y="41" width="18" height="2.5" rx="1.2" fill="#7A5A12" stroke="#4A3608" stroke-width="0.8"/>
<!-- Sword hilt -->
<rect x="31" y="37" width="5" height="1.2" rx="0.6" fill="#C8A832" stroke="#8B6914" stroke-width="0.5"/>
<rect x="32.5" y="33" width="1.8" height="6" rx="0.7" fill="#AAAABC" stroke="#2A2A36" stroke-width="0.6"/>
<!-- Neckerchief side (left-facing) -->
<path d="M12,25 Q20,29 28,26 Q27,31 20,32 Q13,31 12,25 Z" fill="#DD2222" stroke="#991111" stroke-width="0.8"/>
<path d="M12,25 Q20,28 28,26" fill="none" stroke="#FF5555" stroke-width="1" stroke-linecap="round"/>
<!-- Near front arm back -->
<ellipse cx="10" cy="30" rx="3" ry="7" fill="#A8A8B4" stroke="#2A2A36" stroke-width="1.2" transform="rotate(15,10,26)"/>
<ellipse cx="11.5" cy="37" rx="4" ry="2.5" fill="#888894" stroke="#2A2A36" stroke-width="1"/>
<line x1="8"  y1="38.5" x2="8"  y2="40.5" stroke="#505058" stroke-width="1"/>
<line x1="11" y1="39"   x2="11" y2="41" stroke="#505058" stroke-width="1"/>
<line x1="14" y1="38.5" x2="14" y2="40.5" stroke="#505058" stroke-width="1"/>
<!-- Far front arm static -->
<ellipse cx="18" cy="31" rx="3" ry="6" fill="#8C8CA0" stroke="#2A2A36" stroke-width="1" transform="rotate(-5,18,27)"/>
<ellipse cx="17.5" cy="37" rx="3.5" ry="2" fill="#707080" stroke="#2A2A36" stroke-width="0.8"/>
<!-- Near back leg extended forward -->
<ellipse cx="20" cy="46" rx="5" ry="5.5" fill="#A8A8B4" stroke="#2A2A36" stroke-width="1.2" transform="rotate(-15,20,42)"/>
<ellipse cx="18.5" cy="53.5" rx="6.5" ry="2.8" fill="#888894" stroke="#2A2A36" stroke-width="1"/>
<line x1="13.5" y1="55" x2="13.5" y2="55.5" stroke="#505058" stroke-width="1"/>
<line x1="18.5" y1="55.5" x2="18.5" y2="56" stroke="#505058" stroke-width="1"/>
<line x1="23.5" y1="55" x2="23.5" y2="55.5" stroke="#505058" stroke-width="1"/>
<!-- Far back leg static -->
<ellipse cx="30" cy="44" rx="5" ry="5" fill="#8C8CA0" stroke="#2A2A36" stroke-width="1"/>
<ellipse cx="31" cy="51" rx="6" ry="2.5" fill="#707080" stroke="#2A2A36" stroke-width="0.8"/>
<!-- Head side-left (same as frame A) -->
<circle cx="14" cy="14" r="11" fill="#A8A8B4" stroke="#2A2A36" stroke-width="1.5"/>
<polygon points="6,8 1,0 12,4" fill="#A8A8B4" stroke="#2A2A36" stroke-width="1.5" stroke-linejoin="round"/>
<polygon points="7,7.5 3,1 12,4.5" fill="#FFAACC"/>
<polygon points="19,6 21,-1 26,3" fill="#A8A8B4" stroke="#2A2A36" stroke-width="1.5" stroke-linejoin="round"/>
<!-- Green Link cap (side, tip droops left) -->
<ellipse cx="14" cy="8" rx="9" ry="2.5" fill="#3A7034" stroke="#254E23" stroke-width="1"/>
<path d="M5,8 Q14,4 23,8 Q21,2 18,0 Q14,2 10,0 Q7,2 5,8 Z" fill="#4A9044" stroke="#2A5A28" stroke-width="1"/>
<path d="M10,0 Q3,-1 1,5 L5,4 Q6,2 10,0 Z" fill="#4A9044" stroke="#2A5A28" stroke-width="0.8"/>
<!-- Fierce brow -->
<path d="M7,11 Q11,8 14,9.5" fill="none" stroke="#2A2A36" stroke-width="2" stroke-linecap="round"/>
<!-- One eye visible — large Puss-in-Boots -->
<ellipse cx="10" cy="16" rx="4.2" ry="4.5" fill="#1E7A47"/>
<ellipse cx="10" cy="16" rx="2.8" ry="3.2" fill="#2EAA67"/>
<ellipse cx="10" cy="16.5" rx="1.5" ry="2.8" fill="#111120"/>
<circle cx="11.5" cy="14.5" r="1.3" fill="white"/>
<circle cx="8.8" cy="18" r="0.6" fill="white" opacity="0.4"/>
<!-- Nose + smirk + fang -->
<polygon points="4,19 3,21.5 6,21.5" fill="#FF7799"/>
<path d="M3,21.5 Q4,23 5,22.5" fill="none" stroke="#CC3355" stroke-width="1" stroke-linecap="round"/>
<path d="M5,22.5 Q5.5,23 6,21.5" fill="none" stroke="#CC3355" stroke-width="1" stroke-linecap="round"/>
<line x1="3.8" y1="21.5" x2="3.4" y2="23.2" stroke="white" stroke-width="0.9" stroke-linecap="round"/>
<!-- Whiskers pointing left -->
<line x1="4"  y1="19" x2="-5" y2="16" stroke="#888894" stroke-width="0.8"/>
<line x1="4"  y1="21" x2="-5" y2="23" stroke="#888894" stroke-width="0.8"/>
<line x1="8"  y1="19" x2="-3" y2="15" stroke="#888894" stroke-width="0.7"/>
</svg>