<svg xmlns="http://www.w3.org/2000/svg" viewBox="0 0 64 64">
  <!-- Mirage Fox – frame C: mid-stride, legs at passing/equal position -->

  <!-- Heat shimmer glow base -->
  <ellipse cx="32" cy="58" rx="26" ry="6" fill="#FFAA44" opacity="0.25"/>

  <!-- Fluffy tail (identical) -->
  <path d="M44,46 C58,38 64,50 56,60 C50,66 40,58 44,50" fill="#FFAA33" stroke="#AA5500" stroke-width="3"/>
  <path d="M47,48 C56,42 60,52 55,58" fill="#FFE888" opacity="0.7"/>

  <!-- Body (identical) -->
  <ellipse cx="30" cy="44" rx="17" ry="14" fill="#FF8833" stroke="#AA4400" stroke-width="3.5"/>
  <ellipse cx="26" cy="40" rx="9" ry="6" fill="#FFCC66" opacity="0.45"/>

  <!-- Head (identical) -->
  <ellipse cx="28" cy="26" rx="16" ry="15" fill="#FF8833" stroke="#AA4400" stroke-width="3.5"/>

  <!-- Ears (identical) -->
  <polygon points="16,18 12,2 27,15" fill="#FF8833" stroke="#AA4400" stroke-width="3"/>
  <polygon points="40,18 44,2 31,15" fill="#FF8833" stroke="#AA4400" stroke-width="3"/>
  <polygon points="18,16 15,6 25,15" fill="#FFCCAA"/>
  <polygon points="38,16 41,6 33,15" fill="#FFCCAA"/>

  <!-- Eyes (identical) -->
  <ellipse cx="22" cy="24" rx="6" ry="5" fill="#FFEE44" stroke="#AA6600" stroke-width="2"/>
  <ellipse cx="34" cy="24" rx="6" ry="5" fill="#FFEE44" stroke="#AA6600" stroke-width="2"/>
  <ellipse cx="22" cy="24" rx="2" ry="4" fill="#111"/>
  <ellipse cx="34" cy="24" rx="2" ry="4" fill="#111"/>
  <circle cx="23.5" cy="22.5" r="1.5" fill="white"/>
  <circle cx="35.5" cy="22.5" r="1.5" fill="white"/>

  <!-- Nose and mouth (identical) -->
  <ellipse cx="28" cy="31" rx="3.5" ry="2.5" fill="#CC3322" stroke="#882211" stroke-width="1.5"/>
  <path d="M23,34 Q28,38 33,34" fill="none" stroke="#773311" stroke-width="2.5" stroke-linecap="round"/>

  <!-- Mirage shimmer lines (mid-shift between A and B) -->
  <path d="M8,54 Q18,50 28,54" fill="none" stroke="#FFAA44" stroke-width="2.5" opacity="0.5"/>
  <path d="M6,58 Q18,54 32,58" fill="none" stroke="#FFAA44" stroke-width="2" opacity="0.35"/>

  <!-- Front legs — MID-STRIDE: both at equal passing height -->
  <rect x="19" y="55" width="8" height="9"  fill="#FF8833" stroke="#AA4400" stroke-width="2.5" rx="3"/>
  <rect x="30" y="54" width="8" height="10" fill="#FF8833" stroke="#AA4400" stroke-width="2.5" rx="3"/>
</svg>
