<svg xmlns="http://www.w3.org/2000/svg" viewBox="0 0 64 64">
  <!-- Body wrapped in bandages -->
  <ellipse cx="32" cy="46" rx="18" ry="16" fill="#DDDCAA"/>
  <!-- Bandage wrapping lines -->
  <path d="M14,38 Q32,34 50,38" fill="none" stroke="#CCCC88" stroke-width="4" stroke-linecap="round"/>
  <path d="M14,44 Q32,40 50,44" fill="none" stroke="#CCCC88" stroke-width="4" stroke-linecap="round"/>
  <path d="M14,50 Q32,46 50,50" fill="none" stroke="#CCCC88" stroke-width="4" stroke-linecap="round"/>
  <!-- Head -->
  <circle cx="32" cy="24" r="16" fill="#DDDCAA"/>
  <!-- Head bandage -->
  <rect x="16" y="12" width="32" height="8" fill="#CCCC88" rx="2"/>
  <rect x="16" y="20" width="32" height="6" fill="#DDDDAA" rx="1"/>
  <!-- Ears (still visible through bandage) -->
  <polygon points="18,16 14,6 24,14" fill="#DDDCAA"/>
  <polygon points="46,16 50,6 40,14" fill="#DDDCAA"/>
  <!-- Eyes (glowing through bandage) -->
  <ellipse cx="26" cy="26" rx="5" ry="5.5" fill="#00CCAA"/>
  <ellipse cx="38" cy="26" rx="5" ry="5.5" fill="#00CCAA"/>
  <ellipse cx="26" cy="26" rx="2.5" ry="3" fill="#111"/>
  <ellipse cx="38" cy="26" rx="2.5" ry="3" fill="#111"/>
  <circle cx="27.5" cy="24.5" r="1.2" fill="white"/>
  <circle cx="39.5" cy="24.5" r="1.2" fill="white"/>
  <!-- Bandage strip across face -->
  <rect x="16" y="28" width="32" height="5" fill="#CCCC88" rx="2"/>
  <!-- Tail (wrapped) -->
  <path d="M48,54 C58,48 64,56 60,62" fill="none" stroke="#DDDCAA" stroke-width="5" stroke-linecap="round"/>
  <path d="M50,54 C60,48 64,56 62,62" fill="none" stroke="#CCCC88" stroke-width="2" stroke-linecap="round"/>
  <!-- Unwrapped bandage trailing -->
  <path d="M6,42 Q2,38 4,34" fill="none" stroke="#DDDDAA" stroke-width="3" stroke-linecap="round"/>
</svg>
