<svg xmlns="http://www.w3.org/2000/svg" viewBox="0 0 64 64">
  <!--
    Number Bee — frame B (wings raised for flight cycle).
  -->

  <ellipse cx="32" cy="62" rx="17" ry="4" fill="#332200" opacity="0.28"/>

  <!-- Wings raised up -->
  <ellipse cx="14" cy="14" rx="15" ry="8" fill="#CCEEFF" stroke="#88BBCC" stroke-width="2" opacity="0.75" transform="rotate(-40 14 14)"/>
  <ellipse cx="50" cy="14" rx="15" ry="8" fill="#CCEEFF" stroke="#88BBCC" stroke-width="2" opacity="0.75" transform="rotate(40 50 14)"/>
  <ellipse cx="14" cy="24" rx="10" ry="5.5" fill="#CCEEFF" stroke="#88BBCC" stroke-width="1.5" opacity="0.55" transform="rotate(-28 14 24)"/>
  <ellipse cx="50" cy="24" rx="10" ry="5.5" fill="#CCEEFF" stroke="#88BBCC" stroke-width="1.5" opacity="0.55" transform="rotate(28 50 24)"/>

  <!-- Abdomen -->
  <ellipse cx="32" cy="48" rx="14" ry="17" fill="#FFCC00" stroke="#3A2200" stroke-width="3.5"/>
  <rect x="18" y="37" width="28" height="7" fill="#1A0800" opacity="0.82" rx="3"/>
  <rect x="18" y="48" width="28" height="7" fill="#1A0800" opacity="0.82" rx="3"/>
  <polygon points="32,65 28,56 36,56" fill="#3A2200"/>

  <!-- Legs (spread for flight) -->
  <line x1="20" y1="36" x2="6"  y2="28" stroke="#3A2200" stroke-width="3" stroke-linecap="round"/>
  <line x1="20" y1="43" x2="5"  y2="44" stroke="#3A2200" stroke-width="3" stroke-linecap="round"/>
  <line x1="44" y1="36" x2="58" y2="28" stroke="#3A2200" stroke-width="3" stroke-linecap="round"/>
  <line x1="44" y1="43" x2="59" y2="44" stroke="#3A2200" stroke-width="3" stroke-linecap="round"/>

  <!-- Thorax -->
  <ellipse cx="32" cy="29" rx="10" ry="8" fill="#FFCC00" stroke="#3A2200" stroke-width="3"/>

  <!-- Head -->
  <circle cx="32" cy="16" r="13" fill="#FFCC00" stroke="#3A2200" stroke-width="3.5"/>

  <!-- Antennae -->
  <line x1="26" y1="5"  x2="18" y2="-1" stroke="#3A2200" stroke-width="3" stroke-linecap="round"/>
  <line x1="38" y1="5"  x2="46" y2="-1" stroke="#3A2200" stroke-width="3" stroke-linecap="round"/>
  <circle cx="18" cy="-1" r="3.5" fill="#FF4400" stroke="#3A2200" stroke-width="2"/>
  <circle cx="46" cy="-1" r="3.5" fill="#FF4400" stroke="#3A2200" stroke-width="2"/>

  <!-- Eyes -->
  <circle cx="26" cy="15" r="5.5" fill="#0A0602"/>
  <circle cx="38" cy="15" r="5.5" fill="#0A0602"/>
  <circle cx="26" cy="15" r="3.5" fill="#FF8800"/>
  <circle cx="38" cy="15" r="3.5" fill="#FF8800"/>
  <circle cx="25" cy="13" r="1.8" fill="white"/>
  <circle cx="37" cy="13" r="1.8" fill="white"/>

  <!-- Smile -->
  <path d="M26,22 Q32,27 38,22" fill="none" stroke="#3A2200" stroke-width="2.5" stroke-linecap="round"/>

  <!-- Number badge -->
  <rect x="25" y="27" width="4" height="4" rx="1" fill="#3A2200" opacity="0.8"/>
  <rect x="30" y="25" width="4" height="6" rx="1" fill="#3A2200" opacity="0.8"/>
  <rect x="35" y="23" width="4" height="8" rx="1" fill="#3A2200" opacity="0.8"/>
</svg>
