<svg xmlns="http://www.w3.org/2000/svg" viewBox="0 0 64 64">
  <!-- Ghostly glow -->
  <ellipse cx="32" cy="40" rx="26" ry="28" fill="#6633AA" opacity="0.25"/>
  <!-- Wispy lower body (ghost tails) -->
  <path d="M12,52 Q16,62 20,54 Q24,64 28,54 Q32,62 36,54 Q40,64 44,54 Q48,62 52,54 L52,40 L12,40 Z" fill="#8844CC" opacity="0.7"/>
  <!-- Main body -->
  <ellipse cx="32" cy="34" rx="22" ry="26" fill="#9955DD" opacity="0.9"/>
  <!-- Body highlights -->
  <ellipse cx="26" cy="26" rx="8" ry="5" fill="#BB77EE" opacity="0.5"/>
  <!-- Head -->
  <ellipse cx="32" cy="18" rx="18" ry="16" fill="#AA66EE"/>
  <!-- Hollow eyes -->
  <ellipse cx="24" cy="16" rx="6" ry="7" fill="#220033"/>
  <ellipse cx="40" cy="16" rx="6" ry="7" fill="#220033"/>
  <ellipse cx="24" cy="17" rx="3" ry="4" fill="#6600AA" opacity="0.6"/>
  <ellipse cx="40" cy="17" rx="3" ry="4" fill="#6600AA" opacity="0.6"/>
  <!-- Wailing mouth -->
  <ellipse cx="32" cy="26" rx="7" ry="4" fill="#220033"/>
  <!-- % symbol (large, prominent) -->
  <circle cx="26" cy="38" r="4.5" fill="none" stroke="#FFDD44" stroke-width="2.5"/>
  <circle cx="38" cy="46" r="4.5" fill="none" stroke="#FFDD44" stroke-width="2.5"/>
  <line x1="22" y1="48" x2="42" y2="36" stroke="#FFDD44" stroke-width="2.5" stroke-linecap="round"/>
  <!-- Floating wisps around body -->
  <circle cx="8"  cy="28" r="3.5" fill="#9955DD" opacity="0.5"/>
  <circle cx="4"  cy="38" r="2.5" fill="#9955DD" opacity="0.4"/>
  <circle cx="56" cy="28" r="3.5" fill="#9955DD" opacity="0.5"/>
  <circle cx="60" cy="38" r="2.5" fill="#9955DD" opacity="0.4"/>
  <circle cx="10" cy="48" r="2"   fill="#9955DD" opacity="0.35"/>
  <circle cx="54" cy="50" r="2"   fill="#9955DD" opacity="0.35"/>
  <!-- Particle sparkles -->
  <circle cx="14" cy="18" r="1.5" fill="#FFAAFF" opacity="0.7"/>
  <circle cx="50" cy="22" r="1.5" fill="#FFAAFF" opacity="0.7"/>
  <circle cx="20" cy="8"  r="1"   fill="#FFAAFF" opacity="0.5"/>
</svg>
