<svg xmlns="http://www.w3.org/2000/svg" viewBox="0 0 64 64">
  <!-- Percent Wraith — frame B. Body drifted slightly left, tails swept right.
       Bold ghostly shape, readable at 64x64. -->

  <!-- Ghostly glow aura (shifted) -->
  <ellipse cx="30" cy="36" rx="28" ry="28" fill="#6633AA" opacity="0.2"/>

  <!-- Wispy lower body (ghost tails, swept right in frame B) -->
  <path d="M14,48 Q20,58 26,50 Q32,60 40,50 Q48,58 54,46 L50,38 L14,38 Z"
        fill="#8844CC" stroke="#5522AA" stroke-width="2.5" opacity="0.8" stroke-linejoin="round"/>

  <!-- Main body (shifted slightly left) -->
  <ellipse cx="30" cy="32" rx="21" ry="23"
           fill="#9955DD" stroke="#5522AA" stroke-width="3.5"/>

  <!-- Head (shifted) -->
  <ellipse cx="30" cy="18" rx="17" ry="15"
           fill="#AA66EE" stroke="#5522AA" stroke-width="3"/>

  <!-- Hollow eyes (bold, dramatic) -->
  <ellipse cx="22" cy="16" rx="7" ry="7" fill="#220044"/>
  <ellipse cx="39" cy="16" rx="7" ry="7" fill="#220044"/>
  <!-- Inner eye glow -->
  <ellipse cx="22" cy="17" rx="3.5" ry="3.5" fill="#7700BB" opacity="0.7"/>
  <ellipse cx="39" cy="17" rx="3.5" ry="3.5" fill="#7700BB" opacity="0.7"/>

  <!-- Wailing mouth (bold, shifted) -->
  <ellipse cx="30" cy="26" rx="7" ry="5" fill="#220044" stroke="#330055" stroke-width="2"/>

  <!-- % symbol on body (bold, shifted with body) -->
  <circle cx="22" cy="38" r="5" fill="none" stroke="#FFDD44" stroke-width="3"/>
  <circle cx="38" cy="48" r="5" fill="none" stroke="#FFDD44" stroke-width="3"/>
  <line x1="18" y1="50" x2="42" y2="36" stroke="#FFDD44" stroke-width="3" stroke-linecap="round"/>

  <!-- Floating wisps (shifted for frame B) -->
  <circle cx="4" cy="32" r="4" fill="#9955DD" opacity="0.5"/>
  <circle cx="56" cy="24" r="4" fill="#9955DD" opacity="0.5"/>
  <circle cx="10" cy="50" r="3" fill="#9955DD" opacity="0.4"/>
  <circle cx="54" cy="42" r="3" fill="#9955DD" opacity="0.4"/>
</svg>
