<svg xmlns="http://www.w3.org/2000/svg" viewBox="0 0 64 64">
  <!--
    Riddle Scarab — frame B (legs in alternate stride position).
  -->

  <ellipse cx="32" cy="62" rx="22" ry="4" fill="#1A0800" opacity="0.32"/>

  <!-- Shell -->
  <ellipse cx="32" cy="38" rx="22" ry="18" fill="#8B5E1A" stroke="#2A1200" stroke-width="3.5"/>
  <line x1="32" y1="20" x2="32" y2="56" stroke="#4A2800" stroke-width="2.5"/>
  <path d="M11,34 Q32,28 53,34" fill="none" stroke="#4A2800" stroke-width="2.5"/>

  <!-- "?" gem -->
  <circle cx="32" cy="36" r="9" fill="#CC7700" stroke="#4A2800" stroke-width="2.5"/>
  <path d="M28,31 Q28,28 32,28 Q36,28 36,31 Q36,34 32,35" fill="none" stroke="#1A0800" stroke-width="2.5" stroke-linecap="round"/>
  <circle cx="32" cy="39" r="1.8" fill="#1A0800"/>

  <!-- Head -->
  <ellipse cx="32" cy="17" rx="12" ry="10" fill="#9C6E2C" stroke="#2A1200" stroke-width="3"/>
  <circle cx="26" cy="15" r="4.5" fill="#0A0400" stroke="#2A1200" stroke-width="1"/>
  <circle cx="38" cy="15" r="4.5" fill="#0A0400" stroke="#2A1200" stroke-width="1"/>
  <circle cx="26" cy="15" r="2.8" fill="#7722CC"/>
  <circle cx="38" cy="15" r="2.8" fill="#7722CC"/>
  <circle cx="27" cy="13.5" r="1.5" fill="white"/>
  <circle cx="39" cy="13.5" r="1.5" fill="white"/>

  <!-- Mandibles -->
  <path d="M24,22 Q18,28 16,24" fill="none" stroke="#4A2800" stroke-width="3" stroke-linecap="round"/>
  <path d="M40,22 Q46,28 48,24" fill="none" stroke="#4A2800" stroke-width="3" stroke-linecap="round"/>

  <!-- Antennae -->
  <line x1="26" y1="9"  x2="20" y2="3"  stroke="#7B4E1A" stroke-width="3" stroke-linecap="round"/>
  <line x1="38" y1="9"  x2="44" y2="3"  stroke="#7B4E1A" stroke-width="3" stroke-linecap="round"/>
  <circle cx="20" cy="3" r="3" fill="#9944DD" stroke="#2A1200" stroke-width="1.5"/>
  <circle cx="44" cy="3" r="3" fill="#9944DD" stroke="#2A1200" stroke-width="1.5"/>

  <!-- Six legs — alternated (raised front & back, mid down) -->
  <line x1="14" y1="32" x2="4"  y2="24" stroke="#8B5E1A" stroke-width="3.5" stroke-linecap="round"/>
  <line x1="12" y1="40" x2="3"  y2="42" stroke="#8B5E1A" stroke-width="3.5" stroke-linecap="round"/>
  <line x1="14" y1="48" x2="4"  y2="56" stroke="#8B5E1A" stroke-width="3.5" stroke-linecap="round"/>
  <line x1="50" y1="32" x2="60" y2="24" stroke="#8B5E1A" stroke-width="3.5" stroke-linecap="round"/>
  <line x1="52" y1="40" x2="61" y2="42" stroke="#8B5E1A" stroke-width="3.5" stroke-linecap="round"/>
  <line x1="50" y1="48" x2="60" y2="56" stroke="#8B5E1A" stroke-width="3.5" stroke-linecap="round"/>
</svg>
