<svg xmlns="http://www.w3.org/2000/svg" viewBox="0 0 64 64">
  <!--
    Slime Pup — frame B (blob squish/lean left, drips shift).
    Eyes and teeth identical; blob outline and tendrils shift.
  -->
  <!-- Acid pool shadow -->
  <ellipse cx="32" cy="59" rx="24" ry="5" fill="#2A7000" opacity="0.35"/>

  <!-- === DRIP TENDRILS (shifted left) === -->
  <ellipse cx="12" cy="56" rx="5" ry="7" fill="#44BB22" stroke="#0A2200" stroke-width="2.5"/>
  <ellipse cx="28" cy="58" rx="4" ry="6" fill="#44BB22" stroke="#0A2200" stroke-width="2.5"/>
  <ellipse cx="44" cy="56" rx="5" ry="7" fill="#44BB22" stroke="#0A2200" stroke-width="2.5"/>

  <!-- === MAIN BODY (leaned left) === -->
  <path d="M6,42 Q2,26 10,14 Q18,4 30,3 Q42,4 50,14 Q58,24 56,40 Q54,56 30,60 Q8,58 6,42 Z"
        fill="#44BB22" stroke="#0A2200" stroke-width="3.5"/>
  <!-- Glossy highlight -->
  <ellipse cx="20" cy="14" rx="10" ry="6" fill="#88EE44" opacity="0.45"/>

  <!-- === ANTENNAE (shifted left with body) === -->
  <line x1="18" y1="6" x2="12" y2="1" stroke="#0A2200" stroke-width="3" stroke-linecap="round"/>
  <line x1="38" y1="6" x2="44" y2="1" stroke="#0A2200" stroke-width="3" stroke-linecap="round"/>
  <circle cx="12" cy="1" r="3.5" fill="#AAFF44" stroke="#0A2200" stroke-width="2"/>
  <circle cx="44" cy="1" r="3.5" fill="#AAFF44" stroke="#0A2200" stroke-width="2"/>

  <!-- === EYES (shifted left with body lean) === -->
  <ellipse cx="19" cy="25" rx="8" ry="7" fill="#0A2200"/>
  <ellipse cx="39" cy="25" rx="8" ry="7" fill="#0A2200"/>
  <ellipse cx="19" cy="25" rx="5.5" ry="5" fill="#FF7700"/>
  <ellipse cx="39" cy="25" rx="5.5" ry="5" fill="#FF7700"/>
  <ellipse cx="19" cy="25" rx="1.5" ry="4" fill="#0A2200"/>
  <ellipse cx="39" cy="25" rx="1.5" ry="4" fill="#0A2200"/>
  <circle cx="21" cy="22" r="2" fill="#FFEE44" opacity="0.7"/>
  <circle cx="41" cy="22" r="2" fill="#FFEE44" opacity="0.7"/>
  <!-- Angry brows -->
  <line x1="11" y1="18" x2="19" y2="21" stroke="#0A2200" stroke-width="3.5" stroke-linecap="round"/>
  <line x1="47" y1="18" x2="39" y2="21" stroke="#0A2200" stroke-width="3.5" stroke-linecap="round"/>

  <!-- === MOUTH (shifted left) === -->
  <path d="M13,41 Q28,51 45,41" fill="#1A5A08" stroke="#0A2200" stroke-width="2.5"/>
  <polygon points="16,41 19,35 22,41" fill="white" stroke="#0A2200" stroke-width="1.5"/>
  <polygon points="24,42 27,35 30,42" fill="white" stroke="#0A2200" stroke-width="1.5"/>
  <polygon points="32,42 35,35 38,42" fill="white" stroke="#0A2200" stroke-width="1.5"/>
  <polygon points="40,41 43,36 45,41" fill="white" stroke="#0A2200" stroke-width="1.5"/>

  <!-- Drool drips (shifted) -->
  <line x1="22" y1="48" x2="20" y2="56" stroke="#88EE44" stroke-width="2.5" stroke-linecap="round" opacity="0.6"/>
  <line x1="34" y1="50" x2="33" y2="58" stroke="#88EE44" stroke-width="2.5" stroke-linecap="round" opacity="0.5"/>
</svg>
