<svg xmlns="http://www.w3.org/2000/svg" viewBox="0 0 96 96">
  <!-- The Diviner — frame A: mystical sphinx boss with bold pharaoh headdress (96x96) -->

  <!-- Sphinx body — bold shape -->
  <ellipse cx="48" cy="70" rx="36" ry="22" fill="#CC9933" stroke="#7A5510" stroke-width="3.5"/>

  <!-- Front paws — bold rounded -->
  <ellipse cx="22" cy="84" rx="13" ry="9" fill="#CC9933" stroke="#7A5510" stroke-width="3"/>
  <ellipse cx="74" cy="84" rx="13" ry="9" fill="#CC9933" stroke="#7A5510" stroke-width="3"/>
  <!-- Paw toe lines — thick -->
  <line x1="15" y1="88" x2="15" y2="93" stroke="#8A6618" stroke-width="2.5" stroke-linecap="round"/>
  <line x1="22" y1="90" x2="22" y2="95" stroke="#8A6618" stroke-width="2.5" stroke-linecap="round"/>
  <line x1="29" y1="88" x2="29" y2="93" stroke="#8A6618" stroke-width="2.5" stroke-linecap="round"/>
  <line x1="67" y1="88" x2="67" y2="93" stroke="#8A6618" stroke-width="2.5" stroke-linecap="round"/>
  <line x1="74" y1="90" x2="74" y2="95" stroke="#8A6618" stroke-width="2.5" stroke-linecap="round"/>
  <line x1="81" y1="88" x2="81" y2="93" stroke="#8A6618" stroke-width="2.5" stroke-linecap="round"/>

  <!-- Neck -->
  <rect x="35" y="42" width="26" height="22" fill="#DDAA44" rx="5"/>

  <!-- Headdress side panels — bold blocks -->
  <rect x="14" y="26" width="14" height="38" fill="#1A4488" stroke="#0D2244" stroke-width="3" rx="3"/>
  <rect x="68" y="26" width="14" height="38" fill="#1A4488" stroke="#0D2244" stroke-width="3" rx="3"/>
  <rect x="17" y="30" width="8"  height="30" fill="#2A66CC" rx="2"/>
  <rect x="71" y="30" width="8"  height="30" fill="#2A66CC" rx="2"/>

  <!-- Headdress stripes — bold color blocks -->
  <rect x="22" y="28" width="52" height="7"  fill="#1A4488" stroke="#0D2244" stroke-width="2" rx="2"/>
  <rect x="22" y="35" width="52" height="5"  fill="#FFD633" rx="2"/>
  <rect x="22" y="40" width="52" height="5"  fill="#1A4488" rx="2"/>

  <!-- Face — bold oval -->
  <ellipse cx="48" cy="20" rx="22" ry="20" fill="#DDAA44" stroke="#7A5510" stroke-width="3.5"/>

  <!-- Eyes — bold kohl-rimmed -->
  <ellipse cx="38" cy="18" rx="7" ry="6" fill="white" stroke="#1A1A44" stroke-width="2.5"/>
  <ellipse cx="58" cy="18" rx="7" ry="6" fill="white" stroke="#1A1A44" stroke-width="2.5"/>
  <ellipse cx="38" cy="18" rx="4" ry="4" fill="#1A1A44"/>
  <ellipse cx="58" cy="18" rx="4" ry="4" fill="#1A1A44"/>
  <circle cx="40" cy="16.5" r="1.5" fill="white"/>
  <circle cx="60" cy="16.5" r="1.5" fill="white"/>

  <!-- Nose — bold -->
  <ellipse cx="48" cy="27" rx="4.5" ry="3.5" fill="#BB8833" stroke="#7A5510" stroke-width="1.5"/>
  <!-- Mouth — bold curve -->
  <path d="M41,32 Q48,37 55,32" fill="none" stroke="#774422" stroke-width="2.5" stroke-linecap="round"/>

  <!-- Pharaoh beard — bold gold block -->
  <rect x="41" y="36" width="14" height="13" fill="#FFD633" stroke="#AA8800" stroke-width="2" rx="3"/>
  <polygon points="41,49 55,49 48,58" fill="#FFD633" stroke="#AA8800" stroke-width="2"/>

  <!-- Division symbol on chest — bold -->
  <circle cx="48" cy="56" r="3" fill="#FFD633"/>
  <rect x="40" y="60" width="16" height="3.5" fill="#FFD633" rx="1.5"/>
  <circle cx="48" cy="68" r="3" fill="#FFD633"/>
</svg>
