<svg width="32" height="32" viewBox="0 0 32 32" xmlns="http://www.w3.org/2000/svg">
  <!-- Mycelium Wall — dense bioluminescent root-web on near-black forest background -->
  <rect width="32" height="32" fill="#142E24"/>
  <!-- Dark corner vignettes for depth -->
  <ellipse cx="4"  cy="4"  rx="9" ry="9" fill="#0A1A14" opacity="0.4"/>
  <ellipse cx="28" cy="28" rx="8" ry="8" fill="#0A1A14" opacity="0.35"/>
  <!-- Primary web threads radiating from centre -->
  <line x1="16" y1="16" x2="2"  y2="2"  stroke="#DDDCCC" stroke-width="0.8" opacity="0.65"/>
  <line x1="16" y1="16" x2="30" y2="2"  stroke="#DDDCCC" stroke-width="0.8" opacity="0.65"/>
  <line x1="16" y1="16" x2="0"  y2="16" stroke="#DDDCCC" stroke-width="0.7" opacity="0.55"/>
  <line x1="16" y1="16" x2="32" y2="16" stroke="#DDDCCC" stroke-width="0.7" opacity="0.55"/>
  <line x1="16" y1="16" x2="2"  y2="30" stroke="#DDDCCC" stroke-width="0.8" opacity="0.60"/>
  <line x1="16" y1="16" x2="30" y2="30" stroke="#DDDCCC" stroke-width="0.8" opacity="0.60"/>
  <line x1="16" y1="16" x2="16" y2="0"  stroke="#DDDCCC" stroke-width="0.7" opacity="0.60"/>
  <line x1="16" y1="16" x2="16" y2="32" stroke="#DDDCCC" stroke-width="0.7" opacity="0.60"/>
  <!-- Secondary cross-threads -->
  <line x1="0"  y1="8"  x2="32" y2="22" stroke="#DDDCCC" stroke-width="0.4" opacity="0.30"/>
  <line x1="0"  y1="24" x2="32" y2="10" stroke="#DDDCCC" stroke-width="0.4" opacity="0.30"/>
  <!-- Glowing junction nodes -->
  <circle cx="16" cy="16" r="2.0" fill="#BB44FF" opacity="0.90"/>
  <circle cx="2"  cy="2"  r="1.0" fill="#44FFCC" opacity="0.70"/>
  <circle cx="30" cy="2"  r="1.0" fill="#44FFCC" opacity="0.70"/>
  <circle cx="2"  cy="30" r="0.8" fill="#BB44FF" opacity="0.60"/>
  <circle cx="30" cy="30" r="0.8" fill="#BB44FF" opacity="0.60"/>
  <circle cx="16" cy="0"  r="0.7" fill="#44FFCC" opacity="0.55"/>
  <circle cx="16" cy="32" r="0.7" fill="#44FFCC" opacity="0.55"/>
</svg>
